<svg width="57" height="70" viewBox="0 0 57 70" fill="none" xmlns="http://www.w3.org/2000/svg">
<path d="M44.4034 11.7127C44.4031 11.7306 44.3988 11.7483 44.3909 11.7644C44.383 11.7804 44.3716 11.7946 44.3576 11.8057C44.3436 11.8168 44.3273 11.8246 44.31 11.8285C44.2926 11.8325 44.2745 11.8325 44.2572 11.8286C43.8296 12.2632 44.1514 12.6844 44.2842 13.0925C44.4267 13.3646 44.4963 13.6696 44.4862 13.9774C45.2192 16.0352 45.5109 18.2176 46.3627 20.2358C46.5822 20.6631 46.6462 21.1547 46.5436 21.6255C46.4302 21.9397 46.4252 22.283 46.5293 22.5999C47.5412 24.4349 47.5429 26.7265 49.0961 28.3203C49.8519 29.0516 50.2975 30.0491 50.34 31.105C50.3359 31.3097 50.3741 31.5128 50.4523 31.7015C50.5304 31.8902 50.6468 32.0604 50.794 32.2012C50.9412 32.3419 51.1159 32.4503 51.3071 32.5192C51.4984 32.5882 51.7019 32.6163 51.9047 32.6017C53.45 32.561 55.0345 32.9176 56.5498 32.2122C57.1507 34.4444 55.2426 35.3752 54.3625 36.7544C53.0666 38.7902 51.0734 39.99 48.9228 41.081C47.3005 41.8957 45.9048 43.2114 44.5683 44.4808C43.0116 45.956 42.8951 47.9362 43.4637 49.8632C43.9205 51.4069 43.3082 52.839 43.2268 54.3028C43.1744 55.237 42.0944 56.0976 40.9047 56.3558C40.0506 56.5507 39.2476 56.9283 38.5503 57.4628C37.2095 58.4182 36.4437 59.2067 36.9744 61.0234C37.2393 61.9126 36.2642 62.6604 35.3059 62.8118C34.2152 62.9853 33.6728 63.5804 33.712 64.6187C33.7526 65.7479 32.6868 65.7599 32.1598 66.2674C30.6248 67.7501 28.9857 69.1466 26.8108 69.6297C26.5049 69.7035 26.0802 69.8871 25.8599 69.7592C24.6853 69.0813 23.435 69.2537 22.1764 69.2431C21.1582 69.2357 20.6251 68.3929 20.9196 67.5794C21.4589 66.0794 20.7081 64.887 20.2255 63.7036C19.6744 62.3523 19.4946 60.8756 19.7049 59.4281C19.9088 57.8786 19.9194 56.2948 19.2767 54.8206C18.2331 52.3849 18.882 50.2757 20.5366 48.4141C21.3004 47.5374 21.8898 46.6888 21.4044 45.5195C21.0629 44.705 21.7645 44.0846 21.5966 43.2039C21.2467 41.2727 20.8608 39.4307 19.739 37.7746C19.1684 36.93 19.8068 36.153 20.2129 35.4036C20.7143 34.4751 21.1789 33.5565 20.6846 32.4439C20.5605 32.1752 20.4618 31.8122 20.2168 31.7612C18.6172 31.4774 17.841 30.1978 16.8289 29.1441C15.8958 28.1711 14.5729 28.8172 13.6188 29.0602C11.2932 29.6669 9.16857 28.3754 6.85922 28.7368C5.57071 28.9393 3.04027 25.6787 2.94744 24.1172C2.87176 22.8636 2.15948 21.9045 1.61845 20.8904C1.28245 20.2585 0.279938 19.8974 1.27331 19.0481C0.496508 17.423 2.00959 16.603 2.53512 15.4337C2.91532 14.5853 2.8224 13.6793 2.61858 12.8174C2.53102 12.5203 2.52135 12.2052 2.59051 11.9027C2.65967 11.6003 2.8053 11.3207 3.01327 11.0912C4.23482 9.77446 5.48407 8.47807 6.76806 7.22404C7.14429 6.86576 7.59746 6.59968 8.09216 6.44658C9.38804 6.05536 10.348 5.38049 10.8161 4.02663C10.9627 3.61815 11.2102 3.2537 11.5351 2.96765C11.8601 2.68161 12.2518 2.48339 12.6734 2.3917C13.5455 2.15671 14.2981 1.59852 14.7799 0.829211C15.2794 0.286615 15.6549 0.812613 15.9864 1.03389C16.3898 1.32689 16.8596 1.5139 17.3535 1.57801C17.8473 1.64212 18.3496 1.58132 18.815 1.40111C20.51 0.809244 22.2041 0.61223 23.9442 1.32319C24.7739 1.66295 25.6957 1.65903 26.607 1.63537C27.8849 1.60912 28.3811 2.05786 28.1087 3.23892C27.7177 4.93368 28.3564 5.88326 29.8676 6.43822C30.3576 6.63697 30.76 7.00641 31.0015 7.47931C31.4536 8.2788 32.2432 8.61605 33.0049 9.0177C33.4967 9.27825 33.8596 9.19587 34.2266 8.73102C35.1916 7.53046 35.9309 7.28659 37.0717 8.12721C38.9931 9.54317 41.0457 10.4831 43.4234 10.7417C43.9122 10.7939 44.5014 10.9635 44.4034 11.7127Z" fill="#EBEBEB"/>
</svg>
