<svg width="106" height="67" viewBox="0 0 106 67" fill="none" xmlns="http://www.w3.org/2000/svg">
<path d="M56.6828 62.0191C56.1012 60.9907 56.0227 59.8624 56.0136 58.7075C56.0066 57.7931 55.7695 57.0911 54.6843 57.9212C54.4252 58.1189 54.1608 58.3974 53.8105 58.099C53.6831 57.9932 53.5878 57.8535 53.5355 57.6956C53.4831 57.5378 53.4758 57.3683 53.5144 57.2062C53.7317 55.7737 53.5018 54.4792 52.258 53.5615C51.9056 53.3008 51.9211 52.906 51.8068 52.5486C51.6318 51.9942 51.647 50.9878 50.8833 51.209C49.7398 51.5383 48.3729 50.7091 47.3804 52.1673C46.8253 52.9909 45.6387 53.3874 44.7328 53.9564C43.7222 54.6237 42.7836 55.4054 41.6564 55.8932C41.1203 56.1239 41.4101 56.6291 41.3177 57.0166C40.9361 58.6518 40.7067 60.3657 39.2524 61.5169C38.9252 61.7764 38.6762 62.2044 38.1685 61.964C37.6609 61.7236 37.6516 61.2944 37.5558 60.8062C37.0484 58.2511 36.456 55.7134 35.9117 53.1682C35.6814 52.0989 35.5359 51.0268 35.9784 49.9632C36.2067 49.4255 36.1238 48.8756 35.8528 48.1549C35.1556 49.2415 34.4377 49.7591 33.5034 48.6806C32.8411 47.9134 33.6898 47.7859 34.229 47.4155C32.9429 47.0069 32.3246 46.1406 31.7921 45.1693C31.4089 44.4573 30.7722 44.348 29.9299 44.1519C27.7672 43.6426 25.0196 44.2667 23.7053 41.6107C23.5011 41.1965 23.2379 41.0656 22.6974 41.108C21.0489 41.2677 19.4583 40.0348 19.0684 38.3236C19.0104 37.9975 18.8689 37.6925 18.658 37.4386C18.447 37.1848 18.1738 36.9908 17.8653 36.8759C17.4412 36.7085 17.2307 37.1329 16.984 37.4384C16.8705 37.5595 16.8011 37.7156 16.7871 37.8812C16.7732 38.0468 16.8155 38.2122 16.9073 38.3501C17.3632 39.1799 17.6295 40.1021 17.6867 41.0497C17.7285 41.6436 17.8982 42.3345 18.7034 41.6215C18.9734 41.3852 18.9573 41.4345 19.1126 41.7069C20.1457 43.6077 20.6865 43.7029 22.4653 42.3472C22.6305 42.2236 22.7847 42.0831 23.2267 41.7187C22.3159 43.8026 24.1604 44.2076 24.8496 45.2496C25.3539 46.0219 25.5643 46.4199 24.6433 46.8805C23.8523 47.2745 23.4517 48.0952 22.8048 48.6481C21.9251 49.3982 21.0732 50.0985 19.7981 49.9439C19.4176 49.911 19.038 50.0204 18.7318 50.2513C16.7802 51.8929 14.3387 51.7176 12.0748 52.223C11.1797 52.4198 11.0092 51.9834 10.8729 51.2994C10.7439 50.8921 10.6981 50.4625 10.7382 50.0365C11.0761 48.2341 10.1737 46.7935 9.3983 45.315C9.15601 44.8607 8.85159 44.37 8.82554 43.8817C8.74342 42.0737 8.02085 40.495 7.15532 38.989C6.55933 37.9459 6.28813 36.8359 6.26506 35.3299C5.76183 35.9741 5.35874 36.7651 4.92712 35.686C4.64066 35.3693 4.37473 35.0343 4.131 34.6831C4.0532 34.537 4.00793 34.3754 3.99833 34.2097C3.98873 34.044 4.01504 33.8781 4.07542 33.7234C4.19711 33.5575 4.36492 33.4315 4.55756 33.3616C5.17284 33.1972 5.93287 33.3 6.26698 32.5474C6.74874 31.4626 7.3703 30.4041 7.41581 29.1963C7.43618 28.6387 6.86176 28.7881 6.52219 28.8842C5.73463 29.0946 5.03659 29.0427 4.41461 28.4448C4.07511 28.1224 3.62798 28.2048 3.20074 28.1918C2.72222 28.1914 2.25676 28.0373 1.87212 27.7518C1.48748 27.4664 1.20375 27.0645 1.06222 26.6048C0.823639 25.9376 0.804352 25.2078 0.528403 24.5387C0.374071 24.1642 0.61862 23.9108 1.00391 23.8185C2.29527 24.0203 3.46031 23.3648 4.70884 23.2008C6.45725 22.98 7.8538 23.4437 9.18613 24.3828C10.3972 25.2205 11.5837 25.4239 12.7607 24.3349C13.0985 24.2323 13.4622 24.2652 13.7758 24.4265C14.4647 24.9125 15.0743 25.5136 15.8651 25.8453C16.5808 26.5095 17.3793 27.0827 18.075 27.7866C18.3545 28.9686 18.4367 30.2324 19.7522 30.8899C20.2442 31.1359 20.6729 31.4067 21.1729 31.0427C21.6729 30.6787 21.744 30.1843 21.5729 29.6395C21.3253 28.8622 20.7129 28.079 21.8028 27.4078C22.0032 27.2828 21.7479 26.9604 21.5459 26.8422C21.1062 26.5644 20.7053 26.2289 20.3537 25.8445C18.8042 24.2749 18.9935 23.4921 21.0914 22.8349C21.0522 22.3264 20.5564 22.0708 20.4212 21.6184C20.1066 20.9675 20.0096 20.2479 19.7667 19.574C19.7169 19.3849 19.6832 19.1919 19.6661 18.997C19.6319 18.6036 19.5044 18.2259 19.464 17.8341C19.4325 17.496 19.5352 17.1587 19.7497 16.8958C20.4604 16.5523 21.0517 17.3252 21.7407 17.1001C22.2808 17.2127 22.8532 17.212 23.3429 17.5248C23.5063 17.6057 23.6612 17.7027 23.8055 17.8144C24.1057 18.1023 24.4104 18.3824 24.8657 18.3865C26.0875 17.974 26.3162 17.2257 25.6491 15.7991C25.187 15.6326 24.9864 16.1906 24.5703 16.18C24.4168 16.123 24.2817 16.025 24.1795 15.8965C24.0773 15.768 24.0119 15.6138 23.9903 15.4504C23.9227 15.05 23.8501 14.6457 24.0802 14.2664C24.7868 13.887 25.1411 13.358 24.7952 12.5368C24.6971 11.8615 24.7359 11.1728 24.9093 10.5121C25.005 10.2085 25.0239 9.88575 24.9642 9.57332C24.9045 9.26089 24.7682 8.96865 24.5676 8.72317C24.3342 8.39624 24.2317 7.99257 24.2804 7.59227C24.4836 7.10498 24.3229 6.52426 24.6592 6.06763C25.6992 5.35678 27.1033 5.38025 28.0049 4.38595C28.3604 4.67367 28.7915 4.86304 29.109 4.45515C29.476 3.9903 28.8367 3.86581 28.6631 3.5838C28.5747 3.43661 28.3554 3.37336 28.2289 3.24164C27.7913 2.79049 27.1469 2.3284 27.6791 1.62875C28.2113 0.929109 29.6553 1.0399 30.068 1.76386C30.6716 2.8261 31.121 3.97325 31.6623 5.06934C31.9524 5.65655 31.3305 5.75516 31.1772 6.10069C31.0945 6.28829 30.7223 6.34533 30.9225 6.65335C31.0787 6.89367 31.2932 6.86815 31.5448 6.80356C32.0996 6.66462 32.6219 6.54231 32.8756 5.91044C33.1293 5.27857 32.8147 4.80915 32.4663 4.36197C32.2359 4.07397 31.9026 3.8611 31.6895 3.55918C31.4765 3.25725 31.3522 2.9475 31.5923 2.63176C31.8324 2.31603 32.0711 2.62037 32.3203 2.70742C33.195 3.01266 33.9637 2.61397 34.712 2.24323C35.2754 1.96561 35.8424 1.71217 36.4684 1.83095C37.0944 1.94973 37.9422 2.67662 38.019 1.23531C38.0324 1.17081 38.6372 1.05692 38.9364 1.0988C40.2179 1.27815 41.5463 0.925906 42.8007 1.6117C43.4651 1.97844 44.109 1.32841 44.7082 0.976327C45.2382 0.747349 45.6774 1.02327 46.1319 1.22628C46.9921 1.87966 47.8526 2.44823 49.0357 2.41685C49.6206 2.39831 50.2066 2.737 50.7929 2.92067C51.3135 3.0848 51.8481 3.43326 51.8182 3.93912C51.8008 4.4125 51.1118 4.23376 50.7723 4.44098C50.4328 4.64821 49.7403 4.48629 49.884 5.09274C50.0041 5.60355 50.5587 5.25679 50.8788 5.21232C52.0089 5.0587 52.9764 5.75493 53.9413 5.85071C55.7512 6.03191 57.2374 7.27813 59.0434 7.15713C59.8415 7.08562 60.6449 7.19663 61.3933 7.48187C62.1418 7.76711 62.8161 8.21919 63.3656 8.80432C64.2305 9.67229 64.9807 10.8119 66.5862 10.0785C66.9711 9.90411 67.7403 10.3395 68.2063 10.6679C68.3902 10.8224 68.6253 10.9013 68.8648 10.8888C69.1043 10.8764 69.3306 10.7735 69.4986 10.6007C70.8758 9.05298 72.1756 10.3013 73.3833 10.7374C75.7614 11.5931 77.8749 13.1047 80.4269 13.5723C83.1632 14.0754 85.581 15.6884 88.3934 15.9381C88.9012 15.9825 89.2043 16.3822 89.6419 16.5408C90.0038 16.6718 90.5974 17.7963 90.4975 16.2685C90.4783 15.9426 90.9732 16.1189 91.2119 16.1862C93.2416 16.7761 95.2576 17.4597 97.053 18.5743C98.6876 19.5823 100.783 19.7058 102.11 21.2818C102.181 21.3372 102.262 21.3769 102.35 21.3981C102.437 21.4193 102.528 21.4216 102.616 21.4049C104.125 21.1341 104.698 22.149 105.269 23.3099C104.539 23.7049 104.073 23.1805 103.577 22.9278C102.819 22.5475 102.121 22.039 101.343 21.7131C101.076 21.6018 100.294 20.6164 100.26 22.0726C100.253 22.5101 99.4904 21.7102 98.9025 22.2168L102.251 24.536C102.049 24.9621 101.785 24.8749 101.502 24.7837C100.666 24.5158 99.9121 24.6484 99.3081 25.3301C99.0385 25.6338 98.5008 25.9695 98.3596 25.7967C97.5297 24.775 96.5346 25.507 95.6329 25.4565C95.2365 25.4353 94.672 25.3557 94.4852 25.8201C94.2652 26.3595 94.6289 26.9562 95.0089 27.1817C95.4857 27.4392 95.8826 27.824 96.1562 28.2939C96.4297 28.7638 96.5693 29.3008 96.5598 29.8461C96.5788 30.9532 95.8832 31.9905 96.2342 33.1639C96.2769 33.3074 95.4324 33.4562 95.3013 33.1099C94.735 31.6458 93.5554 30.6566 92.7091 29.4209C91.5341 27.7128 92.0936 26.3253 93.0978 24.9778C93.6296 24.2664 93.3777 23.7603 93.0837 23.1781C92.8186 22.6517 92.2302 22.6315 92.1121 23.0868C91.7749 24.3977 91.3694 23.6811 90.8152 23.2876C89.2967 22.2102 88.9421 22.3646 88.3184 24.1162C88.0034 24.9723 87.2952 24.7603 86.8568 24.3967C85.3914 23.19 83.4924 23.9383 81.9015 23.1941C81.205 22.8704 80.3797 23.5265 79.9329 24.2762C79.7218 24.5934 79.5525 24.9368 79.4294 25.2978C79.2876 25.7833 78.4595 26.0906 78.7693 26.5414C79.2482 27.2265 80.1042 27.9697 80.8734 27.8199C82.5754 27.487 82.9837 28.8451 83.6404 29.7223C84.1681 30.4381 84.3229 31.4097 84.8284 32.232C85.5361 33.3803 84.0434 37.3913 82.835 38.0875C82.7005 38.1763 82.5471 38.2317 82.3874 38.2493C82.2277 38.2669 82.0663 38.2461 81.9163 38.1887C80.7747 37.7839 80.0733 38.3195 80.0589 39.6012C80.0733 39.7637 80.0301 39.9263 79.9367 40.0601C79.8434 40.1938 79.7062 40.2901 79.5493 40.3319C77.9079 40.6803 78.9597 41.2507 79.4044 41.7794C80.0891 42.5923 80.9785 43.2312 81.2498 44.3823C81.4771 45.3544 80.7627 45.3254 80.2442 45.5275C79.7256 45.7296 79.2996 45.6964 79.1593 44.9619C78.9251 43.7162 78.7479 42.4064 77.2674 41.9134C77.0688 41.8486 77.1268 41.5563 77.1309 41.2997C77.1429 40.2809 76.3347 39.6705 75.427 40.0666C74.5944 40.4373 74.3765 40.1168 74.3659 39.4152C74.3464 38.185 73.7903 38.2886 73.0358 38.8278C72.8755 38.9297 72.7384 39.0647 72.6337 39.2239C72.3598 39.6877 71.0604 39.2734 71.5736 40.2817C71.9428 41.0054 72.452 41.9075 73.6203 41.6126C74.2523 41.4517 74.6736 41.9111 75.2273 42.1816C75.0071 42.6245 74.5313 42.6218 74.2167 42.8489C73.5242 43.3834 72.6317 43.7212 73.7257 44.8974C74.473 45.7028 74.9666 46.944 75.3125 47.9467C75.6003 48.7821 76.2269 50.1243 75.2422 51.2944C74.4098 52.2914 74.1218 53.6448 72.9434 54.476C71.7649 55.3072 70.4413 55.3298 69.1194 55.2883C68.2544 55.2573 67.5964 55.6264 66.8609 55.9354C66.1254 56.2445 66.1244 54.8835 65.1547 54.9506C63.4128 55.0703 62.4722 56.2935 63.1965 57.8638C63.7617 59.0965 64.8383 59.994 65.155 61.4295C65.6566 63.72 65.4265 64.4475 63.2749 65.2924C62.5972 65.5609 62.3144 66.5554 61.3004 66.2913C61.4297 65.6013 61.9254 64.979 60.5973 64.5353C59.8749 64.294 59.3759 62.6741 58.5734 61.8133C58.3215 61.5443 58.1645 61.0989 57.7281 61.1718C57.2464 61.2529 57.3464 61.7624 57.2232 62.1025C57.1863 62.1415 57.141 62.1713 57.0908 62.1898C57.0406 62.2083 56.9868 62.2148 56.9338 62.209C56.8802 62.1989 56.8298 62.1765 56.7863 62.1436C56.7427 62.1106 56.7074 62.0681 56.6828 62.0191Z" fill="#EBEBEB"/>
</svg>
