<svg width="35" height="26" viewBox="0 0 35 26" fill="none" xmlns="http://www.w3.org/2000/svg">
<path d="M4.18156 17.1939C3.14964 17.4617 2.10463 17.9315 1.06099 17.3774C0.500849 17.0822 -0.224853 16.7729 0.899713 16.0328C1.28553 15.7985 1.59674 15.4579 1.79634 15.0513C1.99594 14.6447 2.07552 14.1893 2.02566 13.7392C1.84201 12.2231 2.5201 10.8516 2.92008 9.44839C3.04728 9.00757 3.14842 8.55961 3.22296 8.10689C3.40599 7.04768 3.91351 6.18779 5.13988 5.94888C6.75579 5.63901 8.31852 5.05468 10.0228 5.31044C10.3109 5.34225 10.6026 5.30201 10.8721 5.19331C11.1415 5.08461 11.3804 4.91079 11.5675 4.68724C12.7535 3.17868 14.7446 2.89435 16.1042 1.61218C16.7623 0.991454 17.7494 0.688037 18.5068 1.835C18.9094 2.43982 19.4081 2.91834 19.9836 1.71853C20.6421 0.357519 24.0901 -0.351769 25.547 1.21609C26.0048 1.70951 25.4957 1.92233 25.2657 2.10558C24.2763 2.89427 24.3275 3.6658 25.1918 4.48097C25.497 4.77284 25.7044 5.19942 26.051 5.41799C26.6168 5.77002 26.7944 6.9249 27.6202 6.55861C28.5812 6.12976 29.5023 5.48776 29.7799 4.28147C30.0292 3.08875 30.6623 2.01106 31.581 1.21557C31.4347 3.68708 33.545 5.66036 32.0294 8.03956C31.8391 8.33934 32.0142 8.58653 32.1838 8.81796C33.6038 10.7439 33.4942 13.2348 34.5309 15.3413C34.9753 16.2474 34.1887 17.6519 33.5303 18.5945C32.5065 20.0637 31.2862 21.3047 29.5055 22.0426C28.1135 22.6303 26.9676 23.7931 25.723 24.7189C25.2173 25.0963 24.8301 25.6857 24.0422 25.1586C23.8 24.9969 23.3016 25.13 22.9564 25.2249C22.196 25.4585 21.4151 26.1385 20.8864 24.8841C20.7735 24.6177 20.4556 24.8324 20.2514 24.8922C19.4453 25.1221 18.9681 24.6101 18.3913 24.1855C17.5647 23.5801 18.0656 23.1139 18.3812 22.5476C18.4732 22.3853 18.3253 22.0911 18.284 21.8572C18.3459 21.3375 18.1228 20.8608 18.0613 20.3476C18.2645 20.0973 18.911 20.0478 18.6223 19.5515C18.4123 19.1654 18.0258 19.5004 17.762 19.6649C16.7672 20.2564 16.1965 20.3042 15.8427 18.9078C15.5399 17.7122 14.5421 16.9803 13.2074 16.9304C13.1965 16.8673 13.2086 16.8024 13.2414 16.7474C13.2742 16.6924 13.3255 16.6511 13.386 16.6311C13.6357 16.6232 13.8849 16.6563 14.1238 16.7293C13.9622 16.6492 13.7832 16.6112 13.6031 16.6186C13.4229 16.626 13.2474 16.6787 13.0923 16.7718C12.577 16.8048 12.0866 16.3427 11.5581 16.7036L7.27596 17.4146C6.732 17.2369 6.2155 16.9273 5.62314 17.2047L5.66563 17.196C5.1724 17.3741 4.69508 16.8767 4.18156 17.1939Z" fill="#EBEBEB"/>
</svg>
