<svg width="390" height="553" viewBox="0 0 390 553" fill="none" xmlns="http://www.w3.org/2000/svg">
<path d="M-21.0176 352.968C-21.0176 352.558 -21.0176 352.149 -21.0176 351.694C-21.0176 351.376 -21.0176 351.058 -20.9722 350.739C-20.9722 350.284 -20.9268 349.875 -20.9268 349.42C-20.9268 349.102 -20.8814 348.784 -20.8814 348.42C-20.836 347.919 -20.7906 347.419 -20.7452 346.873C-20.6998 346.555 -20.6998 346.237 -20.6544 345.918C-20.5636 345.1 -20.4728 344.236 -20.3366 343.372C-20.2912 343.099 -20.2458 342.826 -20.2004 342.553C-20.1096 341.916 -20.0188 341.28 -19.8826 340.643C-19.8372 340.234 -19.7464 339.87 -19.6556 339.46C-19.5648 338.915 -19.4286 338.369 -19.3378 337.778C-19.247 337.323 -19.1562 336.914 -19.02 336.459C-18.9746 336.186 -18.8838 335.913 -18.8384 335.64C-18.8384 335.64 -18.8384 335.64 -18.793 335.595C-18.1574 332.911 -17.2948 330.137 -16.2505 327.272C-14.2983 326.772 -14.2983 326.772 -14.2983 326.772L-14.7977 325.271C-14.7977 325.271 -12.0282 316.266 -6.30769 310.217C-4.03764 310.399 -4.03764 310.399 -4.03764 310.399L-4.53703 308.08C-4.53703 308.08 2.99954 299.257 4.77019 297.301L7.58504 298.393V296.619C7.58504 296.619 8.40227 296.073 9.94591 295.437C9.9913 295.437 10.0367 295.391 10.0821 295.391C10.3999 295.255 10.7631 295.164 11.1263 295.027C11.2625 294.982 11.3987 294.936 11.5349 294.891C11.5803 294.891 11.6257 294.845 11.6711 294.845C11.6257 294.8 11.6257 294.8 11.5803 294.755C11.2171 294.3 10.7631 293.799 10.3091 293.299C8.81087 291.707 6.76782 290.07 4.31618 289.206C4.81558 285.295 4.81557 285.295 4.81557 285.295L2.36392 287.978C2.36392 287.978 2.04611 287.705 1.5013 287.296C-0.269348 285.977 -4.26463 283.112 -6.6709 282.566C-5.94447 279.11 -5.94447 279.11 -5.94447 279.11L-8.16913 280.838C-8.16913 280.838 -13.5719 278.609 -16.7499 278.155C-17.4764 274.698 -17.4763 274.698 -17.4763 274.698L-18.2028 276.654C-18.2028 276.654 -19.1108 276.199 -20.609 275.699C-20.9722 275.562 -21.3354 275.471 -21.7441 275.335C-21.9257 275.29 -22.0619 275.244 -22.2435 275.199C-22.5159 275.108 -22.7883 275.062 -23.1061 274.971C-23.3331 274.926 -23.5147 274.88 -23.7417 274.789C-24.1957 274.698 -24.6951 274.562 -25.1491 274.471C-25.3761 274.425 -25.6031 274.38 -25.8302 274.334C-26.148 274.289 -26.5112 274.244 -26.829 274.198C-27.1014 274.153 -27.3738 274.153 -27.6008 274.107C-27.964 274.062 -28.3726 274.062 -28.7812 274.016C-29.0082 274.016 -29.2352 273.971 -29.4622 273.971C-30.0525 273.971 -30.6427 273.971 -31.2783 273.971C-31.5053 273.971 -31.7323 274.016 -31.9593 274.016C-32.4133 274.062 -32.8673 274.107 -33.3213 274.153C-33.5483 274.198 -33.7753 274.198 -34.0023 274.244C-34.6834 274.334 -35.319 274.471 -36 274.698C-36 274.698 -36 274.653 -35.9546 274.607C-35.9546 274.562 -35.9546 274.562 -35.9092 274.516C-35.8638 274.471 -35.8638 274.38 -35.773 274.289C-35.7276 274.244 -35.7276 274.198 -35.6822 274.107C-35.6368 274.016 -35.546 273.925 -35.5006 273.789C-35.4552 273.698 -35.4098 273.652 -35.3644 273.561C-35.2282 273.379 -35.092 273.152 -34.9104 272.97C-34.8196 272.879 -34.7288 272.743 -34.638 272.652C-34.5472 272.515 -34.4109 272.379 -34.2747 272.197C-34.1385 272.061 -34.0477 271.924 -33.9115 271.788C-33.7753 271.651 -33.6391 271.515 -33.5029 271.333C-33.3667 271.196 -33.2305 271.014 -33.0489 270.833C-32.8673 270.651 -32.6403 270.469 -32.4587 270.287C-32.1863 270.014 -31.8685 269.741 -31.5507 269.468C-31.3691 269.286 -31.1421 269.15 -30.9151 268.968C-30.6881 268.786 -30.4156 268.604 -30.1886 268.422C-29.9616 268.24 -29.7346 268.104 -29.5076 267.922C-29.2352 267.74 -28.9628 267.558 -28.645 267.331C-28.418 267.194 -28.1456 267.012 -27.8732 266.876C-27.3284 266.558 -26.7382 266.194 -26.1026 265.875C-25.7847 265.693 -25.5123 265.557 -25.1945 265.375C-24.8313 265.193 -24.4227 265.011 -24.0141 264.829C-23.6963 264.693 -23.3785 264.556 -23.0153 264.42C-22.5613 264.238 -22.1527 264.056 -21.6987 263.874C-21.5625 263.829 -21.4716 263.783 -21.3808 263.738C-17.9758 262.51 -13.8443 261.464 -8.80475 260.918C-5.85368 262.419 -5.35426 263.374 -5.35426 263.374L-5.85368 262.419C-5.85368 262.419 0.729477 263.056 5.72359 265.33L5.67821 265.284C5.8598 265.375 5.996 265.421 6.1776 265.512C6.22301 265.512 6.26842 265.557 6.31381 265.557C6.76782 265.784 7.17644 266.012 7.58504 266.239C7.94824 266.467 8.31146 266.694 8.62927 266.967C8.67467 267.012 8.76547 267.058 8.81087 267.103C9.44649 267.604 10.0367 268.195 10.4453 268.832C10.4907 268.922 10.5361 268.968 10.5815 269.059C10.7631 269.377 10.9447 269.696 11.0355 270.059C11.7619 268.604 11.7619 268.604 11.7619 268.604L17.7095 272.652L17.1647 270.605L19.8433 270.378L17.1647 269.377L12.9878 255.87L15.6664 254.642L11.8073 255.142C11.8073 255.142 11.5349 254.642 11.0809 253.778C9.7189 251.277 6.54082 245.865 2.90874 242.363C4.72478 240.544 4.72478 240.544 4.72478 240.544L2.36392 241.862C2.36392 241.862 -3.44742 233.676 -6.48929 231.948C-5.26346 229.31 -5.26346 229.31 -5.26346 229.31L-7.21571 231.129C-7.21571 231.129 -12.346 220.078 -17.431 219.032C-17.431 219.032 -10.2122 218.532 4.36156 221.488C4.22536 223.443 4.22536 223.443 4.22536 223.443L5.4512 222.579C5.4512 222.579 15.8026 227.446 19.0261 231.539C19.2531 232.084 19.4347 232.585 19.6163 233.04C20.1157 234.358 20.3428 235.223 20.4335 235.586C20.4335 235.632 20.4335 235.632 20.4335 235.632C20.4335 235.723 20.4789 235.768 20.4789 235.768L21.614 233.13C21.614 233.13 26.5173 237.224 29.9678 245.091C28.969 247.729 29.1506 248.548 29.1506 248.548L31.1028 246.274C31.1028 246.274 32.0562 247.411 32.9642 250.094C33.0096 250.185 33.055 250.322 33.055 250.458C33.1004 250.64 33.1912 250.867 33.2366 251.095C33.2821 251.277 33.3275 251.413 33.3729 251.595C33.4183 251.822 33.5091 252.095 33.5545 252.368C33.5999 252.505 33.6453 252.686 33.6907 252.823C33.7815 253.232 33.8723 253.687 33.9631 254.142C34.0085 254.278 34.0085 254.415 34.0539 254.551C34.0993 254.915 34.1901 255.324 34.2355 255.688C34.2809 255.87 34.2809 256.052 34.3263 256.234C34.3717 256.689 34.4171 257.189 34.5079 257.689C34.5079 257.78 34.5533 257.917 34.5533 258.007C34.5987 258.599 34.6441 259.281 34.6895 259.918C34.6895 260.1 34.6895 260.281 34.6895 260.463C34.6895 260.782 34.7349 261.055 34.7349 261.373C38.0038 255.324 42.5439 248.775 42.5439 248.775L46.63 249.094C46.63 249.094 46.63 249.094 45.4949 247.638C47.4472 244.182 49.7626 242.545 49.7626 242.545L52.2143 243.181C52.2143 243.181 52.2143 243.181 50.5799 240.589C58.2526 234.859 63.6554 234.04 63.6554 234.04L66.4248 236.678C66.4248 236.678 66.2432 235.859 65.426 233.403C81.271 231.402 91.9402 236.905 97.2976 242.681C98.1148 243.591 98.8412 244.455 99.386 245.364C91.7132 243.591 83.2232 247.32 83.2232 247.32L79.3187 245.865L80.7716 247.82L71.646 253.232L66.107 250.958C66.107 250.958 66.7426 251.777 68.8765 253.732C66.7426 255.051 59.3877 262.237 59.3877 262.237L53.1677 259.463C53.1677 259.463 52.9861 260.463 56.255 263.374C55.8918 263.419 55.574 263.51 55.2562 263.601C55.1654 263.647 55.0292 263.692 54.9384 263.692C54.7568 263.738 54.5752 263.829 54.439 263.874C54.3482 263.92 54.2573 263.965 54.1211 264.011C53.9849 264.056 53.8487 264.147 53.7579 264.193C53.6671 264.238 53.5763 264.284 53.5309 264.329C53.4401 264.375 53.3493 264.466 53.2585 264.511C53.2131 264.556 53.1223 264.602 53.0769 264.647C52.9861 264.693 52.9407 264.784 52.8953 264.829C52.8499 264.875 52.8045 264.92 52.7591 264.966C52.7137 265.011 52.6683 265.057 52.6229 265.102C52.5775 265.148 52.5775 265.193 52.5321 265.193C52.4867 265.239 52.4867 265.284 52.4413 265.33L52.3959 265.375C52.3959 265.421 52.3505 265.421 52.3505 265.421L49.2632 264.284C49.2632 264.284 49.2632 264.284 51.8965 266.739C49.4448 268.286 46.3576 273.016 44.6777 275.835C44.6323 275.881 44.6323 275.926 44.5869 275.972C44.1783 276.654 43.8605 277.245 43.6335 277.609C43.6335 277.654 43.5881 277.7 43.5881 277.745C43.5427 277.836 43.4973 277.927 43.4519 277.973C43.4519 278.018 43.4065 278.064 43.4065 278.064L40.7732 277.745C40.7732 277.745 40.7732 277.745 41.9083 279.383C39.1388 280.974 35.3705 286.386 32.7372 290.48C32.9642 290.298 33.1912 290.116 33.4183 289.888L33.4637 289.843C33.8723 289.479 34.3263 289.161 34.8257 288.797C34.8711 288.751 34.9619 288.706 35.0527 288.66C36.0061 287.978 37.0957 287.296 38.367 286.659C38.4578 286.614 38.594 286.568 38.6848 286.477C39.3204 286.159 39.956 285.841 40.637 285.568C40.7278 285.522 40.8186 285.522 40.9094 285.477C41.5451 285.204 42.2261 284.977 42.9071 284.704C43.0433 284.658 43.1795 284.613 43.3157 284.567C44.0421 284.294 44.8593 284.067 45.6766 283.84C45.7673 283.84 45.8128 283.794 45.9036 283.794H45.8582C49.8988 282.703 54.8022 281.929 60.7951 281.838C60.7951 284.476 60.7951 284.476 60.7951 284.476L62.7474 282.521C62.7474 282.521 68.6495 282.839 80.0452 289.388C78.0929 292.663 78.0929 292.663 78.0929 292.663L81.9974 290.07C81.9974 290.07 92.4397 295.937 96.0263 298.256C95.3907 301.531 95.3907 301.531 95.3907 301.531L97.6608 300.212C97.6608 300.212 99.7946 301.576 102.519 304.351C102.564 304.396 102.564 304.396 102.609 304.442C102.882 304.714 103.2 305.033 103.472 305.351C103.518 305.397 103.563 305.442 103.608 305.533C103.881 305.851 104.199 306.17 104.471 306.534C104.516 306.579 104.562 306.67 104.653 306.716C104.925 307.079 105.243 307.398 105.515 307.807C105.561 307.898 105.606 307.943 105.697 308.034C105.969 308.398 106.287 308.808 106.559 309.217C106.605 309.308 106.696 309.399 106.741 309.49C107.013 309.899 107.286 310.308 107.604 310.718C107.649 310.809 107.74 310.9 107.785 310.991C108.058 311.445 108.33 311.855 108.602 312.355C108.648 312.446 108.739 312.582 108.784 312.719C109.056 313.174 109.283 313.628 109.556 314.129C109.874 314.72 110.146 315.357 110.418 315.993C109.828 317.176 109.737 317.949 109.919 318.404C109.964 318.586 110.055 318.767 110.191 318.858L110.237 318.904C110.328 318.995 110.464 319.04 110.555 319.086C110.6 319.086 110.6 319.131 110.645 319.131C110.736 319.177 110.827 319.177 110.918 319.177H110.963C111.009 319.177 111.099 319.177 111.099 319.177C111.099 319.177 119.907 334.23 110.101 351.558C106.196 341.416 99.7946 336.322 99.7946 336.322L101.384 332.911L99.3406 334.276L93.2115 325.862L94.5735 323.133L92.3035 323.816L81.9974 314.401L81.6342 314.038L82.9962 309.262L80.2722 312.446C80.2722 312.446 77.7751 309.945 75.7321 309.035C75.7321 306.761 75.7321 306.761 75.7321 306.761L74.143 308.125C74.143 308.125 65.5168 301.758 60.9767 300.621C60.5227 297.438 60.5227 297.438 60.5227 297.438L59.3877 299.03C59.3877 299.03 55.6648 297.301 50.8977 296.983C50.4891 296.938 50.035 296.938 49.581 296.938C49.4448 296.938 49.354 296.938 49.2178 296.938C48.7638 296.938 48.2644 296.938 47.8104 296.983C46.6754 294.482 46.6754 294.482 46.6754 294.482L45.9944 296.301C45.9944 296.301 44.4053 296.255 42.1353 296.255C42.4077 296.346 42.7255 296.392 42.9979 296.528C43.1341 296.574 43.2249 296.619 43.3611 296.619C43.6789 296.71 44.0421 296.847 44.4053 296.983C44.4507 296.983 44.4961 297.028 44.5415 297.028C48.2644 298.575 52.1689 301.667 55.4832 307.58C53.6671 307.762 53.6671 307.762 53.6671 307.762L56.6636 309.581L56.0734 310.991C56.0734 310.991 60.8859 320.223 61.8847 326.044C59.2969 326.635 59.2969 326.635 59.2969 326.635L61.7031 328.227L60.5227 328.409C60.5227 328.409 60.9767 328.682 61.5215 329.455C61.5215 329.455 61.5215 329.455 61.5215 329.501C61.7485 329.864 62.0209 330.319 62.2479 330.956C62.2479 331.001 62.2933 331.047 62.2933 331.092C62.3841 331.365 62.4749 331.638 62.5658 331.956C62.5658 332.047 62.6112 332.138 62.6112 332.229C62.702 332.548 62.7474 332.911 62.7928 333.275C62.7928 333.366 62.8382 333.412 62.8382 333.503C62.8836 333.957 62.9744 334.458 62.9744 335.003C62.9744 335.049 62.9744 335.094 62.9744 335.094C62.9744 335.595 63.0198 336.14 62.9744 336.686C62.9744 336.823 62.9744 337.005 62.9744 337.186C62.9744 337.687 62.929 338.187 62.8836 338.778C62.8836 338.96 62.8382 339.142 62.8382 339.324C62.7474 340.006 62.702 340.688 62.5658 341.461C62.5658 341.552 62.5657 341.598 62.5203 341.689C61.1129 341.871 61.1129 341.871 61.1129 341.871L62.929 345.1L61.3399 345.691C61.3399 345.691 60.4773 357.243 56.3912 367.839C56.9814 370.341 57.2992 371.523 57.2992 371.523L58.298 368.931C58.298 368.931 60.2503 370.704 62.5203 374.525C62.4749 373.57 62.4296 372.66 62.3841 371.751C62.3841 371.66 62.3841 371.614 62.3841 371.523C62.3841 370.886 62.3841 370.295 62.3841 369.704C62.3841 369.658 62.3841 369.613 62.3841 369.568C62.3841 368.976 62.4296 368.431 62.4749 367.885C62.4749 367.839 62.4749 367.839 62.4749 367.794C62.5203 367.248 62.5658 366.702 62.6112 366.202C62.6112 366.157 62.6112 366.111 62.6112 366.066C62.702 365.02 62.8382 364.11 62.929 363.291V363.246C63.2468 360.972 63.61 359.562 63.61 359.562H66.3794L64.1094 358.425L67.0605 351.058L68.6949 350.557L68.3771 349.102L70.3293 344.19L72.4632 344.509C72.4632 344.509 72.4632 344.509 71.646 342.053C78.3653 331.092 91.8948 327.499 91.8948 327.499L90.5782 336.322H88.1266L89.9426 338.278L87.3093 347.783L84.2221 347.965L86.4921 350.102L84.6761 356.333L82.2244 356.97C82.2244 356.97 82.2244 356.97 83.9043 358.516C83.9497 358.562 83.9497 358.562 83.9951 358.607C81.0894 362.973 80.0906 370.568 79.7274 374.206C79.7274 374.343 79.7274 374.434 79.682 374.57C82.4968 372.387 84.7669 371.205 84.7669 371.205L84.2675 369.249L87.5363 370.25C87.5363 370.25 87.5363 370.25 86.7191 368.431C87.1731 368.112 87.6725 367.794 88.2174 367.521C88.4898 367.385 88.7622 367.248 89.0346 367.112C89.307 366.975 89.534 366.839 89.8064 366.702C89.8518 366.702 89.8518 366.657 89.8972 366.657C90.0788 366.566 90.3058 366.475 90.5328 366.384C90.896 366.202 91.2592 366.066 91.6224 365.929C91.8494 365.838 92.1218 365.747 92.3489 365.656C92.7121 365.52 93.0299 365.383 93.3931 365.292C93.6655 365.202 93.9833 365.111 94.2557 365.02C94.5735 364.929 94.8913 364.792 95.2091 364.701C95.5269 364.61 95.8447 364.519 96.1625 364.428C96.4349 364.337 96.7074 364.246 96.9798 364.201C97.343 364.11 97.7062 364.019 98.0694 363.928C98.2964 363.883 98.5234 363.837 98.705 363.746C99.1136 363.655 99.5222 363.564 99.9308 363.473C100.022 363.473 100.112 363.428 100.203 363.428C105.152 362.336 109.238 361.973 109.238 361.973L113.824 364.929C113.824 364.929 113.324 364.292 112.689 362.291C116.593 362.291 120.543 363.61 120.543 363.61L122.677 367.203L122.359 364.428L131.031 366.702L133.482 370.795C133.482 370.795 133.482 370.795 133.8 367.839C140.02 372.433 148.328 383.075 149.009 393.035C147.193 390.579 141.836 388.76 141.836 388.76L141.2 384.53L140.202 388.123L137.251 387.714L135.798 383.12L135.48 386.713L127.126 384.894L126.309 378.027L124.493 382.756L120.588 381.756L119.771 378.163L119.135 382.256L110.963 382.893L109.147 379.482L109.465 383.393L103.926 384.394L100.657 379.8C100.657 379.8 100.657 379.8 101.474 385.531C99.4314 385.758 94.2103 387.532 91.6678 388.441C91.5316 388.487 91.3954 388.532 91.2592 388.578C91.5316 388.669 91.8494 388.714 92.1218 388.805L92.031 388.623C92.031 388.623 111.781 385.212 129.941 400.22C129.623 402.176 129.623 402.176 129.623 402.176L132.393 402.494L131.757 403.95L137.977 408.225L137.478 409.362C137.478 409.362 139.112 410.681 140.883 414.091C140.883 414.091 140.883 414.137 140.928 414.137C141.064 414.41 141.246 414.728 141.382 415.047C141.427 415.092 141.427 415.137 141.473 415.183C141.609 415.501 141.745 415.82 141.927 416.183C141.927 416.229 141.972 416.274 141.972 416.274C142.29 417.048 142.608 417.866 142.926 418.821C142.971 418.912 142.971 419.049 143.016 419.14C143.107 419.503 143.243 419.867 143.334 420.231C143.38 420.368 143.425 420.504 143.47 420.64C143.561 421.004 143.697 421.414 143.788 421.823C143.834 421.959 143.834 422.096 143.879 422.232C144.015 422.778 144.151 423.324 144.242 423.915V423.96C144.333 424.506 144.469 425.097 144.56 425.643C144.605 425.825 144.605 426.052 144.651 426.234C144.696 426.644 144.787 427.098 144.833 427.553C144.878 427.781 144.878 428.008 144.923 428.281C144.969 428.736 145.014 429.19 145.06 429.691C145.105 429.918 145.105 430.146 145.105 430.373C145.15 431.055 145.241 431.783 145.287 432.556C145.287 432.647 145.287 432.692 145.287 432.783C145.332 433.466 145.332 434.148 145.377 434.875C145.377 435.148 145.377 435.421 145.377 435.694C145.377 436.24 145.377 436.785 145.377 437.331C145.377 437.65 145.377 437.968 145.377 438.286C145.377 438.878 145.377 439.469 145.332 440.06C145.332 440.378 145.332 440.651 145.287 440.97C145.287 441.561 145.241 442.152 145.196 442.743C145.196 442.789 145.196 442.834 145.196 442.834C145.196 443.425 145.15 443.744 145.15 443.744C145.15 443.744 145.15 443.607 145.15 443.425C145.15 443.516 145.15 443.653 145.15 443.744C144.696 442.834 144.197 441.97 143.743 441.106C143.607 440.879 143.47 440.651 143.334 440.424C142.971 439.787 142.653 439.196 142.29 438.605C142.154 438.423 142.063 438.195 141.927 438.013C141.019 436.513 140.111 435.148 139.294 433.92C139.203 433.784 139.112 433.647 139.021 433.511C138.658 433.011 138.34 432.556 138.022 432.147C137.932 432.01 137.841 431.919 137.75 431.783C136.933 430.691 136.161 429.782 135.434 428.918C135.389 428.827 135.298 428.781 135.253 428.69C134.935 428.372 134.663 428.008 134.345 427.735C134.299 427.69 134.209 427.599 134.163 427.553C133.482 426.871 132.892 426.28 132.347 425.78C132.302 425.734 132.256 425.689 132.211 425.643C131.984 425.461 131.802 425.279 131.621 425.143C131.575 425.097 131.485 425.052 131.439 425.006C131.258 424.825 131.031 424.688 130.849 424.552L130.804 424.506C129.986 423.869 129.532 423.642 129.532 423.642L131.348 420.549L129.215 421.868C129.215 421.868 121.36 415.638 118.273 414.501L118.772 410.908L117.456 413.045L116.457 411.408L115.821 411.908L108.466 408.861C109.011 409.225 109.692 409.725 110.6 410.408C112.189 415.82 112.325 429.827 112.325 431.555C112.325 431.692 112.325 431.737 112.325 431.737L109.874 430.646C109.874 430.646 109.874 430.646 112.189 435.694C112.28 439.787 110.418 446.473 109.828 448.519C109.692 448.928 109.647 449.156 109.647 449.156L107.558 448.292L109.011 450.52L108.148 454.431L105.924 453.431C105.924 453.431 105.924 453.431 107.513 455.887C106.786 461.026 102.246 468.257 102.246 468.257L99.9308 468.393C99.9308 468.393 99.9308 468.393 101.157 470.622C98.705 476.625 86.9915 488.723 86.9915 488.723C87.7179 486.13 88.7168 478.854 88.7168 478.854L90.3058 478.444L88.7168 476.58L89.7156 475.443L87.4455 475.852L88.8984 462.117L91.6224 460.98L89.4886 459.389L92.4851 457.524L87.4909 457.251L86.9461 443.971L87.8088 442.379L86.4013 441.106L88.8076 438.968H85.0847L81.5434 425.507L83.1324 422.914L80.8624 423.642L77.4573 414.91L79.5912 411.044L75.3235 413.455L70.8287 407.224C69.4667 410.862 66.8789 417.821 65.8346 421.595C65.4714 421.414 65.199 421.277 64.8812 421.141C64.745 421.505 64.6088 421.959 64.4272 422.414C64.4272 422.46 64.3818 422.551 64.3818 422.596C62.5658 428.008 59.6601 437.559 59.6601 443.835C58.9791 443.607 58.4342 443.471 57.9348 443.289C57.9348 443.425 57.8894 443.516 57.8894 443.653C57.8894 443.789 57.844 443.926 57.844 444.062C57.7986 444.244 57.7986 444.471 57.7532 444.653C57.7078 444.926 57.6624 445.245 57.617 445.517C56.7544 451.748 55.3924 462.663 55.7556 470.44C55.2562 470.485 54.8476 470.531 54.4844 470.576C54.4844 471.531 54.5298 472.714 54.5752 474.078C54.7568 481.582 55.3016 494.089 56.7544 500.047C56.2096 500.183 55.7102 500.274 55.3016 500.365L57.4354 527.38H56.2096L57.7986 534.383C57.8894 534.52 57.8894 534.611 57.8894 534.611C57.8894 534.611 57.8894 530.518 61.9755 524.787C59.5239 529.699 60.3411 534.747 60.3411 534.747C60.3411 534.747 61.3399 528.699 65.7438 527.88C62.7928 529.335 61.1583 537.84 61.1583 537.84C62.7928 532.792 69.4667 531.609 69.4667 531.609C69.4667 531.609 61.7939 537.84 62.1117 542.251C63.9278 537.521 68.6495 536.703 68.6495 536.703C68.6495 536.703 65.0628 539.795 64.064 545.389C64.1094 545.253 64.2002 545.071 64.291 544.889C64.3364 544.798 64.3818 544.707 64.4272 544.616C64.4726 544.525 64.518 544.434 64.5634 544.343C64.6088 544.207 64.6996 544.116 64.7904 543.979C64.8358 543.889 64.8812 543.798 64.9266 543.707C65.0174 543.57 65.1082 543.434 65.199 543.297C65.2444 543.206 65.3352 543.115 65.3806 543.024C65.4714 542.888 65.6076 542.752 65.6984 542.57C65.7438 542.479 65.8346 542.388 65.88 542.297C66.0162 542.16 66.107 542.024 66.2432 541.842C66.334 541.751 66.3794 541.66 66.4702 541.569C66.6064 541.433 66.7426 541.296 66.8789 541.114C66.9697 541.023 67.0605 540.932 67.1059 540.887C67.2421 540.75 67.4237 540.614 67.5599 540.478C67.6507 540.387 67.7415 540.341 67.8323 540.25C68.0139 540.114 68.1501 539.977 68.3317 539.841C68.4225 539.75 68.5133 539.704 68.6041 539.614C68.7857 539.477 68.9673 539.341 69.1489 539.25C69.2397 539.204 69.3305 539.113 69.4213 539.068C69.6029 538.931 69.7845 538.84 70.0115 538.749C70.1023 538.704 70.1931 538.658 70.2839 538.613C70.5109 538.522 70.6925 538.431 70.9195 538.34C71.0103 538.295 71.0557 538.295 71.1466 538.249C72.0092 537.931 72.8718 537.749 73.8252 537.794H73.8706C74.0976 537.794 74.37 537.84 74.597 537.885C74.6878 537.885 74.824 537.885 74.9148 537.931C75.3689 538.022 75.8229 538.113 76.2769 538.295C69.8753 538.295 67.1059 544.389 66.1978 547.072C69.5575 547.209 74.5062 547.663 80.7716 548.891C93.1661 551.302 70.3293 549.164 52.2143 550.619C34.0993 552.12 9.12869 553.757 15.2124 551.711C21.2962 549.664 18.2089 549.801 3.27194 550.528C-9.89438 551.165 -0.269348 547.39 11.3987 546.344C9.03787 545.207 5.996 544.025 3.77135 544.252C6.85863 543.252 9.8551 543.525 11.3533 543.798C11.3533 543.57 11.3079 543.388 11.3079 543.161C9.17409 541.615 4.40697 538.431 0.593277 538.295C6.63162 537.794 10.2183 538.931 10.2183 538.931C10.2183 538.931 5.81439 534.02 0.275467 533.519C0.275467 533.519 5.13339 532.519 10.6723 534.383C10.6269 533.792 10.5815 533.246 10.5815 532.655C7.53964 529.699 4.08917 526.879 4.08917 526.879C4.08917 526.879 7.31264 526.697 10.3999 529.062C10.3545 528.38 10.3545 527.698 10.3091 527.016C8.26605 523.196 6.13222 520.194 6.13222 520.194C6.13222 520.194 7.94826 520.876 10.2183 522.559C10.2183 520.922 10.2637 519.466 10.3545 518.238C9.80969 513.236 8.85628 503.185 8.58386 495.999C8.58386 495.954 8.58386 495.863 8.58386 495.817L8.17526 495.772C8.17526 495.772 6.13222 482.583 8.85628 471.941C8.94708 471.531 9.08328 471.122 9.21948 470.667C9.26488 470.44 9.35568 470.213 9.40108 470.031L6.49542 470.622C6.49542 470.622 5.7236 461.663 7.17644 452.931V452.885C7.17644 452.794 7.22183 452.703 7.22183 452.612C7.31264 452.203 7.35805 451.794 7.44884 451.384C7.44884 451.339 7.49425 451.248 7.49425 451.202L6.26842 451.066L3.99835 450.838C3.99835 450.838 4.13455 447.155 4.40697 442.516C4.40697 442.425 4.40697 442.334 4.40697 442.243C4.45236 441.697 4.49777 441.106 4.54318 440.515C4.54318 440.287 4.58856 440.105 4.58856 439.878C4.63397 439.287 4.67938 438.696 4.72478 438.104C4.72478 437.922 4.77019 437.786 4.77019 437.604C4.81558 436.967 4.86098 436.331 4.95178 435.694C4.95178 435.558 4.95178 435.467 4.99719 435.33C5.08798 434.602 5.13339 433.875 5.2242 433.193C5.2242 433.147 5.2242 433.147 5.2242 433.102C5.31499 432.374 5.40579 431.646 5.49658 431.01C5.49658 430.964 5.49658 430.919 5.49658 430.873C5.58739 430.236 5.67819 429.645 5.769 429.1C5.81439 428.963 5.81441 428.827 5.8598 428.69C5.8598 428.599 5.90521 428.508 5.90521 428.417C5.95061 428.235 5.95061 428.054 5.996 427.872C5.996 427.781 6.04141 427.69 6.04141 427.599C6.08681 427.417 6.13222 427.28 6.13222 427.144C6.17761 427.053 6.1776 426.962 6.1776 426.871C6.1776 426.826 6.17761 426.78 6.22301 426.735L5.90521 426.598L3.77135 425.734C3.77135 425.734 3.77136 425.097 3.81676 424.006C2.95413 424.552 2.04611 425.234 1.13809 425.961C0.956497 426.098 0.774887 426.28 0.593277 426.416C0.275467 426.644 0.00306702 426.917 -0.314743 427.189C-0.541748 427.371 -0.768753 427.553 -0.950363 427.781C-1.26816 428.054 -1.54057 428.326 -1.85838 428.599C-2.08539 428.827 -2.31239 429.054 -2.5394 429.281C-2.85721 429.554 -3.12961 429.873 -3.44742 430.191C-3.67442 430.418 -3.90143 430.646 -4.12843 430.919C-4.44624 431.237 -4.76405 431.601 -5.08186 431.965C-5.30887 432.192 -5.53587 432.465 -5.76288 432.738C-6.12608 433.147 -6.48929 433.602 -6.85249 434.011C-7.0341 434.239 -7.21571 434.466 -7.39731 434.693C-7.94212 435.376 -8.48694 436.103 -9.03175 436.876C-10.3484 435.057 -10.3484 435.057 -10.3484 435.057L-10.8478 436.876C-10.8478 436.876 -14.9339 435.876 -17.3856 443.107C-17.3856 443.107 -21.6533 432.965 -18.0212 417.593C-16.2051 417.912 -16.2051 417.912 -16.2051 417.912L-16.5229 415.456C-16.5229 415.456 -16.4321 415.365 -16.2959 415.183L-16.2505 415.137C-16.2051 415.047 -16.1143 414.956 -16.0235 414.819C-14.8431 413.227 -11.8466 409.316 -10.1668 408.27C-8.85016 409.907 -8.85014 409.907 -8.85014 409.907V407.133C-8.85014 407.133 -1.81297 400.584 0.457077 398.947C1.0927 401.084 1.90991 401.903 1.90991 401.903L1.5921 397.492L4.49777 396.264C4.58858 392.716 4.90639 387.35 5.6328 381.847C5.4512 381.892 5.22418 381.938 5.04257 382.029C3.68054 379.8 3.68054 379.345 3.68054 379.345V381.801C3.68054 381.801 -0.0423431 382.574 -4.21924 384.257C-4.53705 384.394 -4.90025 384.53 -5.21806 384.667C-5.35426 384.712 -5.53586 384.803 -5.67207 384.894C-5.98987 385.03 -6.26228 385.167 -6.58009 385.303C-6.76169 385.394 -6.98871 385.485 -7.1703 385.576C-7.44272 385.713 -7.71512 385.849 -7.98752 385.985C-8.21452 386.122 -8.44153 386.213 -8.62314 386.349C-8.85014 386.486 -9.12256 386.622 -9.34956 386.759C-9.57657 386.895 -9.80357 387.077 -10.0306 387.213C-10.2576 387.35 -10.4392 387.486 -10.6662 387.623C-10.8932 387.805 -11.1656 387.987 -11.3926 388.168C-11.5742 388.305 -11.7558 388.441 -11.892 388.578C-12.1644 388.805 -12.3914 389.033 -12.6638 389.26C-12.8 389.396 -12.9362 389.487 -13.0271 389.624C-13.3903 389.988 -13.7081 390.351 -14.0259 390.761C-13.7989 387.805 -13.3902 386.713 -13.3902 386.713C-13.3902 386.713 -16.7045 392.216 -16.9315 393.853C-16.9315 393.853 -17.3401 391.579 -17.0223 388.077C-17.1131 388.396 -17.1586 388.578 -17.1586 388.578C-17.1586 388.578 -17.1131 388.396 -17.0223 388.032C-16.5229 382.984 -14.4345 375.343 -7.1703 367.976C-4.71866 368.476 -4.71866 368.476 -4.71866 368.476L-5.30887 367.021C-5.30887 367.021 -5.26347 366.975 -5.17267 366.93C-5.17267 366.93 -5.12726 366.93 -5.12726 366.884C-5.03645 366.793 -4.90025 366.702 -4.71866 366.611C-4.67325 366.611 -4.67325 366.566 -4.62785 366.566C-4.21924 366.293 -3.62903 365.884 -2.85721 365.429C-2.81181 365.429 -2.8118 365.383 -2.8118 365.383C-0.269348 363.792 3.90755 361.472 8.22066 360.199C8.99248 355.514 9.9913 349.921 11.2625 344.463C11.2625 344.418 11.2625 344.418 11.3079 344.372C11.4895 343.644 11.6257 342.962 11.8073 342.235C11.8981 341.916 11.9436 341.598 12.0343 341.28C12.0343 341.234 12.0343 341.189 12.0797 341.189C12.1252 341.098 12.1252 341.007 12.1705 340.916L11.8527 340.688L10.6723 339.824C10.6723 339.824 15.5756 325.271 18.7083 317.903C18.7083 317.903 18.7083 317.858 18.7537 317.858C18.9807 317.358 19.2077 316.857 19.3893 316.403L17.9819 315.766L19.8433 312.309C19.3439 312.582 18.8899 312.764 18.4813 312.855C16.5291 309.399 16.5291 309.399 16.5291 309.399L16.7561 313.81L13.578 316.994L10.8993 314.038L12.1252 317.676C12.1252 317.676 5.95059 324.771 2.77252 329.728C2.59091 330.001 2.40933 330.319 2.27312 330.592C2.22772 330.683 2.1369 330.819 2.09151 330.91C1.9099 331.274 1.7283 331.593 1.54671 331.911C-0.269348 330.865 -0.904953 330.592 -0.904953 330.592L-0.133148 332.775C-0.133148 332.775 -3.22041 338.051 -4.76404 341.598C-4.85484 341.78 -4.90025 341.962 -4.99104 342.144C-5.03645 342.235 -5.08186 342.326 -5.12726 342.462C-5.17267 342.598 -5.21806 342.735 -5.26346 342.871C-5.30885 343.008 -5.35426 343.099 -5.35426 343.19C-5.39967 343.281 -5.44507 343.417 -5.44507 343.508C-5.49046 343.69 -5.53587 343.872 -5.58127 344.054C-9.07715 341.916 -10.4846 341.507 -10.4846 341.507L-8.85014 345.009C-8.85014 345.009 -18.793 352.604 -20.0188 361.518C-20.0188 361.518 -20.0188 361.472 -20.0188 361.381C-20.0188 361.336 -20.0188 361.336 -20.0188 361.29C-20.0188 361.199 -20.0642 361.108 -20.0642 360.926C-20.0642 360.836 -20.0642 360.79 -20.1096 360.654C-20.1096 360.517 -20.155 360.335 -20.155 360.153C-20.155 360.017 -20.2004 359.926 -20.2004 359.79C-20.2004 359.562 -20.2458 359.335 -20.2458 359.107C-20.2458 358.925 -20.2912 358.789 -20.2912 358.607C-20.2912 358.289 -20.3366 357.97 -20.3366 357.607C-20.3366 357.47 -20.3366 357.334 -20.382 357.197C-20.4274 356.697 -20.4274 356.151 -20.4274 355.605C-20.4274 355.424 -20.4274 355.242 -20.4274 355.014C-20.4274 354.605 -20.4274 354.196 -20.4274 353.741C-21.0176 353.513 -21.0176 353.241 -21.0176 352.968ZM69.0127 393.035C69.0127 392.944 69.0127 392.807 69.0127 392.716L68.6495 393.262C68.6495 393.262 68.6495 393.262 68.6495 393.217C68.6949 393.353 68.6949 393.535 68.7403 393.671C68.8765 393.853 68.9673 394.035 69.1035 394.217L69.1489 394.035C69.0581 393.717 69.0581 393.399 69.0127 393.035ZM68.3317 395.991C68.3771 396.036 68.4225 396.127 68.5133 396.173L68.8765 394.945L68.3317 395.991ZM33.3275 542.933C33.3275 543.206 33.3275 543.434 33.3275 543.616C33.3275 543.479 33.3728 543.252 33.4183 543.024L33.3275 542.933ZM29.423 292.526C29.196 293.208 29.0143 293.709 28.8781 294.118C28.7873 294.345 28.7419 294.573 28.6511 294.8L29.2868 293.618C29.2868 293.618 29.3322 293.663 29.3776 293.663C29.3776 293.663 29.3776 293.663 29.423 293.709C29.4684 293.754 29.5138 293.799 29.6046 293.89C29.5592 293.481 29.5138 293.072 29.4684 292.708C29.423 292.663 29.423 292.617 29.423 292.526ZM48.1282 353.286L49.3086 351.467L47.4926 352.058L46.3122 348.465L44.0875 341.825L45.6766 341.007L42.2715 339.188L40.0468 334.367L42.0445 332.548L38.4578 333.73L31.466 318.313L33.4637 314.902L30.2402 317.312L29.7408 316.403C29.2414 318.085 28.7873 319.632 28.5149 320.859C28.1517 320.678 27.8793 320.587 27.6069 320.405C27.5615 320.496 27.5615 320.541 27.5161 320.632C27.4253 320.905 27.3345 321.178 27.2437 321.496C27.1983 321.678 27.1529 321.815 27.1075 321.996C25.5185 327.454 23.0214 336.959 23.1122 343.19C22.4766 343.008 21.9318 342.826 21.4778 342.689C21.4324 343.008 21.387 343.372 21.3416 343.735C20.933 347.237 20.3427 352.831 20.0249 358.562C21.3416 358.607 22.7036 358.698 23.8386 358.88C25.6547 361.7 25.6547 361.7 25.6547 361.7L26.2903 359.38C26.2903 359.38 36.2331 359.517 43.1795 362.063C45.1317 365.02 45.6311 365.611 45.6311 365.611L46.1306 362.427C46.1306 362.427 50.1259 364.519 53.6217 366.293C50.7161 355.424 48.1282 353.286 48.1282 353.286ZM42.2715 383.893C42.2261 383.439 42.2261 383.12 42.1807 382.893C42.1353 382.438 42.1353 382.393 42.1353 382.393C42.1353 382.393 42.1353 382.393 42.1807 382.893C42.0899 382.893 41.9537 382.938 41.8629 382.938L41.1818 384.121L32.7372 383.757L32.8734 381.074L31.5114 383.029C31.5114 383.029 28.5603 382.529 25.1099 382.12C23.4754 381.983 21.2508 381.801 19.4801 381.71C19.5709 383.439 19.7071 385.167 19.8433 386.895L25.2915 385.804L28.7873 387.85L27.7885 385.576C27.7885 385.576 34.8257 384.394 40.6824 384.485C43.4065 386.759 43.4065 386.759 43.4065 386.759L43.0433 384.394C43.0433 384.394 47.8558 384.712 53.4401 385.94C53.5309 385.94 53.5763 385.985 53.6671 385.985C54.0303 386.076 54.439 386.167 54.8476 386.258C54.9838 386.304 55.12 386.304 55.2562 386.349C55.7102 386.486 56.1642 386.577 56.6182 386.713C56.709 386.713 56.7544 386.759 56.8452 386.759C57.2538 386.85 57.617 386.986 57.9802 387.122C58.1618 387.168 58.298 387.213 58.4797 387.304C58.7975 387.395 59.1153 387.532 59.4331 387.623C59.5693 387.668 59.7055 387.714 59.8871 387.759C60.2957 387.896 60.7497 388.077 61.1583 388.259C61.2945 388.305 61.4307 388.396 61.5669 388.441C61.7939 388.532 62.0209 388.623 62.2479 388.76C62.1117 388.669 61.9755 388.623 61.8393 388.532C61.7485 388.487 61.6123 388.396 61.4761 388.35C60.9313 388.077 60.3865 387.759 59.7963 387.486C55.5286 385.44 49.7172 383.711 42.2715 383.893ZM57.0722 406.678L54.8022 401.448L53.3493 405.86L47.4926 407.315L46.6754 402.585L45.3587 406.496L33.2821 412.363L31.1482 408.77L30.6488 411.863L26.5627 412.5L24.9283 409.407L24.7467 412.864L24.6104 412.954L21.6594 415.092L22.749 426.917L21.4324 426.962C21.4324 427.326 21.4324 427.69 21.4324 428.099V428.144C21.4324 428.417 21.4324 428.736 21.4778 429.054C21.6594 434.375 22.4766 443.334 25.6547 448.474C24.565 448.565 23.6116 448.656 22.8398 448.746C23.0214 451.794 23.884 460.844 26.9259 466.483C26.0633 466.665 25.2915 466.847 24.6558 466.984C24.8375 467.802 25.0191 468.848 25.2461 469.985C26.5627 476.443 29.0598 487.131 31.7384 491.997C30.9666 492.224 30.331 492.406 29.7408 492.588L30.331 494.817L36.6417 519.375L36.3693 519.421L36.7779 520.876C37.0503 516.192 37.5044 509.37 38.0946 504.231C38.1854 503.458 38.2762 502.73 38.367 502.048C38.367 501.957 38.367 501.911 38.4124 501.82C38.4578 501.639 38.4578 501.411 38.5032 501.229L37.6406 500.956C37.6406 500.956 37.7768 483.538 41.9537 471.759L40.5916 471.85C40.5916 471.85 42.6347 457.979 46.0852 445.017C46.0852 445.017 46.0852 445.017 46.0852 444.972C46.1306 444.881 46.1306 444.79 46.176 444.653C46.3576 444.017 46.5392 443.38 46.6754 442.743C46.7662 442.425 46.857 442.152 46.9478 441.834C46.9478 441.788 46.9932 441.697 46.9932 441.652C47.0386 441.561 47.0386 441.47 47.084 441.379L45.4949 440.196C45.4949 440.196 46.9024 436.467 48.8092 431.828C49.1724 430.919 49.581 429.918 49.9897 428.963C50.1713 428.463 50.3983 428.008 50.5799 427.508C50.6707 427.28 50.7615 427.098 50.8523 426.871C51.1247 426.234 51.3517 425.643 51.6241 425.052C51.6695 424.915 51.7149 424.779 51.8057 424.688C52.1235 424.006 52.3959 423.278 52.7137 422.642C52.7137 422.596 52.7591 422.551 52.7591 422.505C53.0769 421.823 53.3493 421.141 53.6671 420.504C53.7125 420.413 53.7125 420.368 53.7579 420.277C54.0303 419.685 54.3028 419.14 54.5298 418.594C54.5752 418.503 54.6206 418.457 54.6206 418.366C54.8476 417.866 55.0746 417.411 55.3016 417.002L53.8487 416.365L60.4773 405.269L57.0722 406.678ZM42.2715 546.663V546.708C42.3169 546.708 42.3623 546.708 42.4077 546.708C42.3623 546.663 42.3169 546.617 42.2715 546.663ZM34.7349 263.465C34.7349 263.692 34.7349 263.92 34.7349 264.147H35.3705C35.3251 264.193 35.3251 264.193 34.7349 263.465Z" fill="#010101" fill-opacity="0.15"/>
<path d="M266.5 468.5C265.7 517.3 315.834 517.833 326.5 514.5C346.834 513.167 385.1 497.7 375.5 446.5C363.5 382.5 387.5 312.5 367.5 265.5C360.334 247.167 326.1 210.5 246.5 210.5C147 210.5 29 185.5 26.5 91.5" stroke="#021689" stroke-width="3" stroke-dasharray="8 8"/>
<path d="M266.5 469C242.5 515 172.5 522 136 513C99.5002 504 81.6172 532.128 43.5001 520C21.5002 513 2.30017 513.4 21.5002 377" stroke="#021689" stroke-width="3" stroke-dasharray="8 8"/>
<path d="M27.0001 89.5C27.0001 57.8333 46.0002 -0.100019 122 21.5C217 48.5001 291 166.5 356.5 98.5C422 30.5 337 13 302 37.5" stroke="#021689" stroke-width="3" stroke-dasharray="8 8"/>
<path d="M419 73.9908C419.059 85.5624 412.769 95.7098 403.454 101.11L240.4 102C237.077 97.49 235 91.8526 235 85.7997C234.941 70.5489 247.223 58.0872 262.473 58.0279C268.05 57.9685 273.212 59.6301 277.603 62.4191C281.045 51.4409 291.31 43.4298 303.473 43.3111C303.355 20.0492 322.105 1.11924 345.305 1.00056C368.565 0.881877 387.493 19.6338 387.611 42.8364C404.819 42.8364 418.94 56.7223 419 73.9908Z" fill="white" fill-opacity="0.2"/>
<path d="M126.631 44.3359C121.886 44.3359 117.434 45.6811 113.743 48.0208C114.622 45.7981 115.149 43.4 115.149 40.8849C115.149 30.3566 106.596 21.8755 96.1106 21.8755C91.5999 21.8755 87.4408 23.4547 84.1603 26.0868C82.11 11.3472 69.4567 0 54.1087 0C37.3548 0 23.7642 13.5698 23.7642 30.2981C23.7642 31.117 23.8228 31.9943 23.8814 32.8132C22.2997 32.4623 20.6595 32.2868 18.9606 32.2868C6.60025 32.2868 -3.5341 41.5868 -4.88144 53.5189C-7.22465 52.583 -9.80217 52.0566 -12.4969 52.0566C-23.8028 52.0566 -32.9999 61.1811 -32.9999 72.5283C-32.9999 83.817 -23.8614 93 -12.4969 93H126.689C140.104 93 151 82.1208 151 68.7264C150.942 55.2151 140.046 44.3359 126.631 44.3359Z" fill="white" fill-opacity="0.2"/>
<g clip-path="url(#clip0_0_152)">
<path fill-rule="evenodd" clip-rule="evenodd" d="M286.707 47.3137L300.875 54.5999C300.941 54.6344 301.015 54.6322 301.08 54.5952L302.516 53.7656C302.576 53.7313 302.613 53.6754 302.622 53.6095C302.63 53.5435 302.609 53.4787 302.561 53.4312L292.776 43.6614C292.707 43.5916 292.604 43.5782 292.518 43.6276L286.7 46.9398C286.63 46.9804 286.591 47.0498 286.592 47.1301C286.593 47.2088 286.636 47.2771 286.707 47.3137ZM285.614 45.4218L286.388 29.5088C286.392 29.4337 286.431 29.3707 286.495 29.3336L287.932 28.5041C287.991 28.4697 288.058 28.4656 288.12 28.491C288.181 28.5164 288.227 28.5672 288.244 28.6323L291.814 41.9948C291.84 42.0893 291.8 42.1855 291.714 42.2349L285.937 45.6172C285.866 45.6577 285.787 45.6571 285.718 45.6156C285.648 45.5726 285.612 45.5023 285.614 45.4218Z" fill="#021689"/>
<path fill-rule="evenodd" clip-rule="evenodd" d="M299.126 39.5467L305.793 41.1402C305.852 41.1532 305.906 41.1459 305.958 41.1159L306.671 40.7042C306.739 40.6655 306.78 40.5991 306.784 40.5216C306.788 40.4442 306.755 40.3737 306.693 40.3287L302.548 37.293C302.475 37.24 302.382 37.2346 302.303 37.2805L299.065 39.1336C298.984 39.1804 298.941 39.2681 298.953 39.3603C298.971 39.4538 299.036 39.5254 299.126 39.5467ZM298.453 38.3808L300.406 31.8085C300.424 31.7515 300.457 31.7076 300.509 31.6777L301.222 31.266C301.289 31.2272 301.367 31.2248 301.437 31.2599C301.506 31.2951 301.551 31.3585 301.558 31.4353L302.115 36.5426C302.124 36.6327 302.082 36.7156 302.003 36.7614L298.779 38.639C298.698 38.6857 298.601 38.6791 298.527 38.6221C298.456 38.5619 298.426 38.4691 298.453 38.3808Z" fill="#021689"/>
<path fill-rule="evenodd" clip-rule="evenodd" d="M300.454 36.9391C300.47 36.9303 300.485 36.9214 300.5 36.9126C300.52 36.9012 300.54 36.8897 300.56 36.8783C300.58 36.8668 300.599 36.8553 300.619 36.8439L300.679 36.8095C300.699 36.798 300.719 36.7866 300.738 36.7751C300.758 36.7636 300.778 36.7522 300.798 36.7407C300.818 36.7293 300.838 36.7178 300.856 36.7072C300.896 36.6843 300.934 36.6623 300.972 36.6402C300.992 36.6288 301.01 36.6182 301.03 36.6067C301.05 36.5953 301.068 36.5847 301.088 36.5732C301.126 36.5512 301.164 36.5292 301.203 36.5086C301.222 36.4981 301.242 36.4866 301.261 36.4775C301.279 36.467 301.299 36.4555 301.318 36.4464C301.337 36.4359 301.356 36.4268 301.376 36.4154C301.394 36.4048 301.413 36.3957 301.431 36.3851C301.469 36.3655 301.506 36.3459 301.544 36.3262C301.563 36.3172 301.582 36.3066 301.601 36.2975C301.62 36.2885 301.638 36.2779 301.656 36.2697C301.692 36.251 301.73 36.2329 301.767 36.2156C301.785 36.2075 301.804 36.1984 301.822 36.1902C301.839 36.182 301.859 36.173 301.876 36.1648C301.894 36.1566 301.913 36.1476 301.931 36.1394C301.949 36.1312 301.966 36.1231 301.985 36.1164C302.002 36.1082 302.021 36.1016 302.039 36.0934C302.056 36.0852 302.075 36.0786 302.093 36.0704C302.111 36.0637 302.129 36.0556 302.146 36.0498C302.164 36.0432 302.181 36.0359 302.199 36.0292C302.218 36.0226 302.235 36.0168 302.253 36.0101C302.27 36.0044 302.289 35.9977 302.306 35.9919C302.323 35.9862 302.341 35.9795 302.358 35.9737C302.375 35.968 302.392 35.9622 302.41 35.9579C302.427 35.9522 302.445 35.9479 302.462 35.9421C302.497 35.9321 302.531 35.923 302.566 35.9145C302.584 35.9102 302.601 35.9069 302.619 35.9026C302.687 35.8874 302.755 35.8746 302.822 35.8665C302.839 35.8647 302.856 35.8628 302.871 35.8604C302.904 35.8575 302.939 35.8539 302.971 35.8534C303.469 35.8276 303.779 35.9229 303.893 36.1389C303.993 36.329 303.941 36.6127 303.725 36.9868C303.709 37.0146 303.691 37.0433 303.674 37.0711C303.656 37.0998 303.637 37.1269 303.618 37.1541C303.608 37.1681 303.598 37.1821 303.588 37.1938C303.546 37.2483 303.503 37.2999 303.455 37.3516C303.443 37.365 303.432 37.3775 303.419 37.3909C303.395 37.4168 303.369 37.442 303.343 37.4672C303.33 37.4806 303.317 37.4925 303.303 37.5043C303.29 37.5162 303.277 37.5296 303.264 37.5415C303.25 37.5533 303.237 37.5652 303.221 37.5779C303.208 37.5898 303.193 37.6025 303.179 37.6144C303.166 37.6262 303.151 37.639 303.136 37.6517C303.121 37.6645 303.106 37.6748 303.091 37.6875C303.076 37.7003 303.062 37.7106 303.047 37.7234C303.032 37.7361 303.016 37.7473 303 37.7585C302.984 37.7698 302.969 37.7825 302.953 37.7937C302.937 37.8049 302.922 37.8177 302.906 37.8289C302.89 37.8401 302.874 37.8513 302.857 37.8634C302.841 37.8747 302.824 37.8868 302.808 37.898C302.792 37.9092 302.774 37.9213 302.758 37.9325C302.725 37.9558 302.691 37.9776 302.656 38.0018C302.639 38.0139 302.622 38.0236 302.604 38.0357C302.587 38.0478 302.569 38.0584 302.551 38.0705C302.515 38.0932 302.48 38.1159 302.444 38.1385C302.425 38.1491 302.408 38.1612 302.39 38.1718C302.371 38.1824 302.354 38.1945 302.334 38.2059C302.316 38.2165 302.298 38.2286 302.278 38.2401C302.26 38.2507 302.24 38.2621 302.223 38.2742C302.185 38.2963 302.147 38.3198 302.109 38.3419C302.089 38.3533 302.071 38.3639 302.051 38.3754C302.031 38.3868 302.013 38.3974 301.993 38.4089C301.955 38.4309 301.915 38.4538 301.877 38.4759C301.857 38.4873 301.837 38.4988 301.819 38.5094C301.799 38.5208 301.779 38.5323 301.76 38.5437C301.74 38.5552 301.72 38.5667 301.7 38.5781L301.64 38.6125C301.621 38.624 301.601 38.6354 301.581 38.6469C301.561 38.6583 301.541 38.6698 301.521 38.6813C301.506 38.6901 301.491 38.6989 301.476 38.7077L301.657 39.0213C301.787 39.2465 301.709 39.531 301.489 39.6721L287.87 48.292C287.867 48.2938 287.865 48.2946 287.862 48.2964C287.813 48.3246 287.763 48.3537 287.714 48.3819C287.665 48.4101 287.616 48.4383 287.568 48.4665C287.519 48.4948 287.47 48.523 287.421 48.5512L287.274 48.6358C287.226 48.664 287.177 48.6922 287.129 48.7196C287.08 48.7478 287.033 48.7751 286.984 48.8033C286.935 48.8315 286.888 48.8588 286.839 48.8871C286.743 48.9426 286.647 48.9981 286.552 49.0528C286.505 49.0801 286.457 49.1074 286.41 49.1348C286.363 49.1621 286.315 49.1894 286.267 49.2152C286.172 49.2684 286.079 49.3221 285.985 49.3744C285.937 49.4017 285.891 49.4266 285.844 49.4516C285.797 49.4765 285.75 49.5038 285.703 49.5287C285.656 49.5537 285.611 49.5801 285.564 49.605C285.517 49.63 285.471 49.6549 285.424 49.6798C285.331 49.7297 285.239 49.7786 285.147 49.8252C285.102 49.8492 285.055 49.8726 285.01 49.8967C284.964 49.9192 284.918 49.9433 284.872 49.9658C284.781 50.0123 284.691 50.0565 284.599 50.0991C284.555 50.1208 284.509 50.1433 284.463 50.1634C284.419 50.1851 284.373 50.2052 284.328 50.2253C284.283 50.2454 284.238 50.267 284.194 50.2863C284.149 50.3064 284.105 50.3256 284.061 50.3449C284.017 50.3641 283.972 50.3818 283.927 50.4019C283.883 50.4212 283.839 50.4389 283.794 50.4566C283.749 50.4743 283.706 50.4911 283.661 50.5089C283.618 50.5257 283.573 50.5434 283.529 50.5587C283.486 50.5755 283.442 50.5909 283.398 50.6062C283.354 50.6215 283.311 50.6359 283.267 50.6512C283.223 50.6665 283.18 50.681 283.137 50.6939C283.094 50.7083 283.051 50.7212 283.007 50.7341C282.964 50.747 282.92 50.7599 282.878 50.7719C282.793 50.7969 282.708 50.8194 282.623 50.8404C282.58 50.8509 282.539 50.8605 282.495 50.8695C279.352 51.572 278.25 49.6633 280.429 47.2912C280.458 47.2602 280.488 47.2269 280.518 47.1951C280.579 47.1315 280.641 47.0694 280.705 47.0079C280.738 46.9767 280.77 46.9464 280.802 46.9153C280.835 46.8841 280.869 46.8544 280.902 46.8233C280.936 46.7936 280.97 46.7616 281.004 46.7319C281.039 46.7014 281.073 46.6717 281.108 46.6412C281.144 46.6107 281.18 46.5817 281.215 46.5511C281.251 46.5221 281.287 46.4916 281.324 46.4617C281.361 46.4327 281.398 46.4028 281.436 46.3729C281.474 46.343 281.512 46.3147 281.55 46.2848C281.589 46.2564 281.626 46.2265 281.666 46.1973C281.705 46.1689 281.745 46.1397 281.784 46.1113C281.824 46.082 281.862 46.0537 281.903 46.0259C281.944 45.9967 281.985 45.969 282.025 45.9397C282.066 45.912 282.106 45.8827 282.148 45.8541C282.232 45.7978 282.315 45.7414 282.4 45.6842C282.443 45.6556 282.486 45.6285 282.529 45.5999C282.571 45.5713 282.615 45.5442 282.66 45.5163C282.747 45.4597 282.836 45.4046 282.924 45.3496C282.969 45.3216 283.014 45.2936 283.059 45.2657C283.104 45.2377 283.148 45.2097 283.194 45.1833C283.239 45.1553 283.285 45.1289 283.331 45.1C283.376 45.072 283.424 45.0447 283.469 45.0167C283.561 44.9615 283.655 44.9053 283.748 44.8515C283.795 44.8242 283.843 44.7968 283.889 44.768C283.936 44.7407 283.984 44.7133 284.031 44.686C284.126 44.6314 284.222 44.5758 284.318 44.5203C284.365 44.4929 284.414 44.4647 284.463 44.4365C284.512 44.4083 284.559 44.381 284.608 44.3528C284.657 44.3246 284.706 44.2964 284.753 44.269L284.9 44.1844C284.949 44.1562 284.998 44.128 285.046 44.0998C285.095 44.0716 285.144 44.0434 285.193 44.0151C285.242 43.9869 285.291 43.9587 285.341 43.9296C285.344 43.9279 285.346 43.927 285.349 43.9252L299.623 36.4408C299.854 36.3195 300.14 36.3942 300.271 36.621L300.454 36.9391ZM287.867 48.2874C287.864 48.2892 287.863 48.2901 287.86 48.2918L287.867 48.2874Z" fill="#021689"/>
</g>
<g clip-path="url(#clip1_0_152)">
<path fill-rule="evenodd" clip-rule="evenodd" d="M23.0163 364.045L8.38373 370.347C8.31465 370.376 8.26923 370.435 8.25702 370.508L7.98361 372.144C7.97228 372.212 7.99187 372.276 8.03719 372.325C8.08251 372.373 8.14606 372.398 8.2131 372.392L21.9757 371.052C22.0734 371.043 22.1495 370.972 22.1657 370.874L23.3088 364.278C23.3222 364.198 23.2937 364.123 23.2307 364.074C23.1695 364.024 23.0892 364.014 23.0163 364.045ZM25.1711 364.405L36.9603 375.121C37.016 375.172 37.0399 375.242 37.0277 375.315L36.7543 376.951C36.743 377.019 36.7036 377.073 36.6449 377.105C36.5863 377.136 36.5181 377.139 36.4568 377.111L23.8739 371.369C23.7843 371.329 23.7356 371.237 23.7519 371.139L24.8152 364.53C24.8286 364.45 24.8798 364.388 24.9555 364.362C25.033 364.335 25.1104 364.352 25.1711 364.405Z" fill="#021689"/>
<path fill-rule="evenodd" clip-rule="evenodd" d="M21.1135 378.569L15.6441 382.701C15.5969 382.738 15.5677 382.785 15.5578 382.844L15.4221 383.656C15.4093 383.733 15.4344 383.807 15.4916 383.859C15.5487 383.912 15.6239 383.932 15.6984 383.912L20.6769 382.643C20.7645 382.62 20.8275 382.552 20.8426 382.462L21.4713 378.784C21.4867 378.692 21.4464 378.603 21.3672 378.554C21.284 378.508 21.1869 378.513 21.1135 378.569ZM22.4414 378.791L26.2721 384.477C26.3047 384.527 26.317 384.581 26.3072 384.64L26.1715 385.452C26.1587 385.529 26.111 385.591 26.0398 385.622C25.9687 385.653 25.8913 385.647 25.8272 385.604L21.5315 382.786C21.4561 382.736 21.4187 382.651 21.4338 382.561L22.0347 378.878C22.0501 378.786 22.1172 378.715 22.208 378.695C22.2999 378.678 22.39 378.714 22.4414 378.791Z" fill="#021689"/>
<path fill-rule="evenodd" clip-rule="evenodd" d="M22.2813 381.252C22.2784 381.27 22.2755 381.287 22.2726 381.305C22.2688 381.327 22.2651 381.35 22.2613 381.372C22.2575 381.395 22.2537 381.418 22.2499 381.44L22.2386 381.508C22.2348 381.531 22.2311 381.553 22.2273 381.576C22.2235 381.599 22.2197 381.621 22.2159 381.644C22.2122 381.666 22.2084 381.689 22.2049 381.71C22.1974 381.755 22.1901 381.798 22.1828 381.842C22.179 381.865 22.1756 381.885 22.1718 381.908C22.168 381.931 22.1645 381.952 22.1607 381.974C22.1535 382.018 22.1462 382.061 22.1372 382.104C22.1337 382.125 22.13 382.148 22.1247 382.168C22.1212 382.189 22.1175 382.212 22.1122 382.232C22.1088 382.253 22.1035 382.274 22.0998 382.296C22.0963 382.317 22.0911 382.338 22.0876 382.359C22.0789 382.4 22.0702 382.442 22.0615 382.483C22.0562 382.504 22.0527 382.525 22.0475 382.545C22.0423 382.566 22.0388 382.587 22.0339 382.605C22.0255 382.645 22.015 382.686 22.0049 382.726C22 382.745 21.9947 382.765 21.9898 382.784C21.9849 382.803 21.9797 382.823 21.9747 382.842C21.9698 382.861 21.9646 382.882 21.9596 382.9C21.9547 382.919 21.9498 382.938 21.9431 382.957C21.9382 382.976 21.9315 382.994 21.9266 383.013C21.9217 383.032 21.915 383.05 21.9101 383.069C21.9034 383.088 21.8985 383.107 21.8921 383.123C21.8854 383.142 21.8808 383.159 21.8741 383.178C21.8675 383.196 21.8611 383.213 21.8544 383.231C21.8481 383.248 21.8414 383.267 21.835 383.284C21.8287 383.3 21.822 383.319 21.8156 383.336C21.8093 383.353 21.8029 383.369 21.7948 383.386C21.7884 383.403 21.7803 383.419 21.7739 383.436C21.7595 383.469 21.7453 383.501 21.7291 383.534C21.7209 383.551 21.7131 383.565 21.705 383.582C21.6732 383.644 21.6399 383.705 21.6037 383.762C21.5942 383.776 21.5846 383.791 21.5771 383.804C21.5583 383.831 21.5392 383.86 21.5189 383.885C21.2221 384.286 20.9518 384.464 20.7123 384.415C20.5022 384.371 20.3163 384.151 20.1647 383.746C20.1538 383.716 20.1431 383.684 20.1322 383.653C20.1215 383.621 20.1126 383.589 20.1036 383.557C20.0993 383.541 20.095 383.524 20.0921 383.509C20.0766 383.442 20.0645 383.376 20.0547 383.306C20.0524 383.288 20.0499 383.271 20.0476 383.253C20.0427 383.218 20.0398 383.182 20.037 383.146C20.0347 383.128 20.0341 383.11 20.0336 383.092C20.033 383.074 20.0307 383.055 20.0301 383.037C20.0296 383.02 20.029 383.002 20.0287 382.982C20.0282 382.964 20.0279 382.944 20.0274 382.926C20.0268 382.908 20.0265 382.888 20.0262 382.869C20.026 382.849 20.0271 382.831 20.0269 382.812C20.0266 382.792 20.0278 382.774 20.0275 382.755C20.0272 382.735 20.0287 382.715 20.0302 382.696C20.0316 382.677 20.0314 382.657 20.0328 382.638C20.0343 382.618 20.034 382.598 20.0355 382.579C20.0369 382.56 20.0384 382.54 20.0402 382.519C20.0416 382.5 20.0434 382.478 20.0448 382.459C20.0463 382.44 20.048 382.418 20.0495 382.399C20.0527 382.358 20.0577 382.318 20.0612 382.276C20.0629 382.255 20.0661 382.236 20.0679 382.214C20.0696 382.193 20.0731 382.172 20.0749 382.151C20.0801 382.109 20.0854 382.067 20.0906 382.025C20.0941 382.004 20.0958 381.983 20.0993 381.962C20.1028 381.941 20.1046 381.92 20.1083 381.898C20.1118 381.877 20.1136 381.856 20.1174 381.833C20.1208 381.812 20.1246 381.789 20.1264 381.768C20.1336 381.725 20.1392 381.681 20.1464 381.638C20.1502 381.615 20.1537 381.594 20.1575 381.572C20.1612 381.549 20.1647 381.528 20.1685 381.505C20.1758 381.462 20.1833 381.417 20.1906 381.373C20.1944 381.351 20.1981 381.328 20.2016 381.307C20.2054 381.285 20.2092 381.262 20.213 381.239C20.2167 381.217 20.2205 381.194 20.2243 381.172L20.2356 381.104C20.2394 381.081 20.2432 381.058 20.247 381.036C20.2507 381.013 20.2545 380.991 20.2583 380.968C20.2612 380.951 20.2641 380.933 20.267 380.916L19.9099 380.856C19.6534 380.813 19.4834 380.572 19.5142 380.313L21.5216 364.321C21.5222 364.317 21.5225 364.316 21.523 364.312C21.5323 364.256 21.5419 364.199 21.5512 364.143C21.5605 364.088 21.5698 364.032 21.5791 363.976C21.5884 363.921 21.5977 363.865 21.607 363.809L21.6349 363.643C21.6442 363.587 21.6535 363.531 21.6625 363.477C21.6718 363.422 21.6808 363.368 21.6901 363.312C21.6994 363.256 21.7084 363.203 21.7177 363.147C21.736 363.037 21.7543 362.928 21.7723 362.82C21.7813 362.766 21.7903 362.712 21.7994 362.658C21.8084 362.604 21.8174 362.55 21.8281 362.497C21.8479 362.389 21.8656 362.283 21.885 362.177C21.894 362.124 21.9045 362.072 21.9149 362.02C21.9254 361.968 21.9344 361.914 21.9449 361.862C21.9553 361.81 21.964 361.758 21.9745 361.706C21.9849 361.654 21.9954 361.602 22.0058 361.551C22.0267 361.447 22.0473 361.345 22.0694 361.245C22.0795 361.195 22.0917 361.143 22.1019 361.093C22.1138 361.043 22.1239 360.993 22.1358 360.943C22.1579 360.843 22.1814 360.745 22.2066 360.647C22.2182 360.599 22.2301 360.549 22.2434 360.502C22.255 360.453 22.2684 360.406 22.2817 360.358C22.2951 360.31 22.3067 360.262 22.3197 360.216C22.333 360.168 22.3461 360.122 22.3591 360.076C22.3722 360.03 22.387 359.984 22.4003 359.936C22.4133 359.89 22.4281 359.844 22.4429 359.798C22.4577 359.753 22.4722 359.709 22.4869 359.663C22.5014 359.619 22.5162 359.573 22.5324 359.529C22.5469 359.485 22.5631 359.441 22.5794 359.398C22.5956 359.354 22.6115 359.312 22.6277 359.268C22.644 359.224 22.6599 359.182 22.6776 359.141C22.6935 359.098 22.7111 359.057 22.7288 359.015C22.7465 358.973 22.7641 358.932 22.7815 358.892C22.8166 358.81 22.853 358.73 22.8913 358.651C22.9104 358.611 22.9292 358.573 22.95 358.534C24.4064 355.661 26.5802 356.024 27.0255 359.215C27.0309 359.257 27.0378 359.301 27.043 359.344C27.0533 359.432 27.0619 359.519 27.0684 359.608C27.0716 359.653 27.075 359.696 27.0781 359.742C27.0813 359.787 27.0827 359.832 27.0858 359.877C27.0872 359.922 27.0901 359.969 27.0915 360.014C27.0926 360.061 27.094 360.105 27.0951 360.152C27.0962 360.199 27.0956 360.245 27.0967 360.292C27.0961 360.338 27.0972 360.385 27.0963 360.433C27.0957 360.479 27.0948 360.527 27.0938 360.576C27.0929 360.624 27.0903 360.671 27.0894 360.72C27.0867 360.767 27.0858 360.816 27.0829 360.865C27.0802 360.913 27.0773 360.962 27.0747 361.01C27.0717 361.06 27.0691 361.108 27.0644 361.157C27.0615 361.206 27.0568 361.256 27.0539 361.305C27.0492 361.355 27.0463 361.404 27.0413 361.455C27.0317 361.555 27.0221 361.656 27.0121 361.758C27.0072 361.809 27.0005 361.859 26.9955 361.91C26.9906 361.962 26.9839 362.012 26.9769 362.065C26.9649 362.168 26.9513 362.271 26.9376 362.375C26.9306 362.427 26.9236 362.479 26.9166 362.532C26.9097 362.584 26.9027 362.637 26.894 362.689C26.887 362.741 26.8783 362.794 26.871 362.848C26.864 362.9 26.855 362.954 26.848 363.007C26.832 363.113 26.8157 363.221 26.798 363.327C26.789 363.381 26.78 363.435 26.7727 363.489C26.7637 363.543 26.7547 363.597 26.7457 363.651C26.7277 363.759 26.7094 363.868 26.6911 363.978C26.6821 364.032 26.6728 364.087 26.6635 364.143C26.6542 364.199 26.6452 364.253 26.6359 364.308C26.6266 364.364 26.6173 364.42 26.6083 364.473L26.5804 364.64C26.5711 364.696 26.5618 364.752 26.5525 364.807C26.5432 364.863 26.5339 364.919 26.5246 364.974C26.5153 365.03 26.506 365.086 26.4964 365.143C26.4958 365.146 26.4955 365.148 26.495 365.152L23.1944 380.928C23.141 381.183 22.9019 381.356 22.6436 381.313L22.2813 381.252ZM21.5268 364.322C21.5274 364.318 21.5277 364.316 21.5282 364.313L21.5268 364.322Z" fill="#021689"/>
</g>
<defs>
<clipPath id="clip0_0_152">
<rect width="29.7653" height="28.9609" fill="white" transform="translate(286.739 63.1505) rotate(-120)"/>
</clipPath>
<clipPath id="clip1_0_152">
<rect width="29.7653" height="28.9609" fill="white" transform="translate(10.7728 354) rotate(9.48543)"/>
</clipPath>
</defs>
</svg>
