<svg width="38" height="41" viewBox="0 0 38 41" fill="none" xmlns="http://www.w3.org/2000/svg">
<g clip-path="url(#clip0_0_621)">
<g filter="url(#filter0_d_0_621)">
<ellipse cx="17.9793" cy="18.0336" rx="17.9444" ry="18.0818" fill="#FFF200"/>
</g>
<g filter="url(#filter1_d_0_621)">
<ellipse cx="17.9444" cy="18.0818" rx="17.9444" ry="18.0818" fill="#FFF200"/>
</g>
<path d="M27.9609 10.9168C27.9609 10.9168 27.0384 9 25.8965 9C22.9668 9 15.6896 16.1765 15.6896 18.4659C15.6896 21.3412 23.5376 27.0952 25.8965 27.9318C26.9629 28.3099 28.2406 27.0397 27.9609 26.0149C27.3426 23.7492 20.3033 18.4659 20.3033 18.4659L27.9609 10.9168Z" fill="#16BDD2"/>
<path d="M7.03908 10.9168C7.03908 10.9168 7.96157 9 9.10347 9C12.0332 9 19.3104 16.1765 19.3104 18.4659C19.3104 21.3412 11.4624 27.0952 9.10347 27.9318C8.03714 28.3099 6.7594 27.0397 7.03908 26.0149C7.6574 23.7492 14.6967 18.4659 14.6967 18.4659L7.03908 10.9168Z" fill="#16BDD2"/>
</g>
<defs>
<filter id="filter0_d_0_621" x="0.0348511" y="-0.0482178" width="35.8889" height="40.1636" filterUnits="userSpaceOnUse" color-interpolation-filters="sRGB">
<feFlood flood-opacity="0" result="BackgroundImageFix"/>
<feColorMatrix in="SourceAlpha" type="matrix" values="0 0 0 0 0 0 0 0 0 0 0 0 0 0 0 0 0 0 127 0" result="hardAlpha"/>
<feOffset dy="4"/>
<feComposite in2="hardAlpha" operator="out"/>
<feColorMatrix type="matrix" values="0 0 0 0 1 0 0 0 0 0.949019 0 0 0 0 0 0 0 0 0.36 0"/>
<feBlend mode="normal" in2="BackgroundImageFix" result="effect1_dropShadow_0_621"/>
<feBlend mode="normal" in="SourceGraphic" in2="effect1_dropShadow_0_621" result="shape"/>
</filter>
<filter id="filter1_d_0_621" x="0" y="0" width="35.8889" height="40.1636" filterUnits="userSpaceOnUse" color-interpolation-filters="sRGB">
<feFlood flood-opacity="0" result="BackgroundImageFix"/>
<feColorMatrix in="SourceAlpha" type="matrix" values="0 0 0 0 0 0 0 0 0 0 0 0 0 0 0 0 0 0 127 0" result="hardAlpha"/>
<feOffset dy="4"/>
<feComposite in2="hardAlpha" operator="out"/>
<feColorMatrix type="matrix" values="0 0 0 0 1 0 0 0 0 0.949019 0 0 0 0 0 0 0 0 0.36 0"/>
<feBlend mode="normal" in2="BackgroundImageFix" result="effect1_dropShadow_0_621"/>
<feBlend mode="normal" in="SourceGraphic" in2="effect1_dropShadow_0_621" result="shape"/>
</filter>
<clipPath id="clip0_0_621">
<rect width="38" height="41" fill="white"/>
</clipPath>
</defs>
</svg>
