<svg width="59" height="46" viewBox="0 0 59 46" fill="none" xmlns="http://www.w3.org/2000/svg">
<path d="M46.9076 35.9361C46.081 35.3863 45.2284 34.8633 44.703 33.9695C44.073 33.5631 43.3825 33.2524 42.8404 32.7034L41.7657 32.4793C40.6651 31.7525 39.8363 30.7252 38.9088 29.8091C38.1859 29.0965 39.003 28.4095 39.1058 27.5822C38.4139 27.7658 37.6734 27.4856 37.2237 28.2492C37.2189 28.508 37.1351 28.7592 36.9836 28.9688C36.0052 29.4818 35.5179 29.032 35.176 28.1355C34.7688 27.0791 34.2482 26.9003 33.4041 27.6052C32.4334 28.4154 31.4016 29.2538 31.6689 30.7726C31.8231 31.6358 31.2404 31.6578 30.65 31.7308C29.7563 31.8371 28.9365 31.157 28.0324 31.5363C27.5323 31.6076 26.8708 31.5341 27.2698 32.4074C27.3614 32.6275 27.4108 32.8632 27.4155 33.102C27.4463 33.8459 27.2186 34.5622 26.407 34.5393C25.5954 34.5164 25.2273 33.8574 25.3375 33.0083C25.3708 32.8484 25.7193 32.6958 25.4551 32.5558C24.1211 31.8476 24.2217 30.5429 24.077 29.3276C24.069 29.1336 23.9863 28.9505 23.8464 28.8172C22.5331 27.8704 21.6887 26.3746 19.9634 25.3975C20.5093 26.6607 21.2791 27.8127 22.2353 28.7974C23.2424 29.8472 23.1992 30.64 22.2122 31.6955C22.1258 31.8104 22.0116 31.901 21.8805 31.9588C21.7494 32.0165 21.6059 32.0394 21.4637 32.0252C21.0877 31.9615 21.1066 31.6201 21.122 31.3512C21.1681 30.4331 20.721 29.8044 20.0012 29.3413C19.0041 28.6837 18.2445 27.7199 17.8347 26.5925C17.5071 25.7809 17.0964 25.4378 16.2258 25.8094C15.4253 26.1517 14.5943 26.2916 13.7489 25.9018C13.4839 25.7792 13.0867 25.7198 12.9631 25.9779C12.4655 26.9716 11.4346 27.0113 10.6347 27.462C10.0382 27.762 9.55809 28.2543 9.27126 28.8604C9.08541 29.2505 8.80525 29.5875 8.45655 29.8406C8.10784 30.0936 7.7018 30.2545 7.27574 30.3085C6.30941 30.4845 5.30448 30.2604 4.3256 30.5246C4.06381 30.5958 3.97646 30.2762 3.96211 30.0245C3.66365 29.7282 3.40773 29.2417 3.06308 29.167C1.36755 28.8135 2.13251 27.6942 2.35051 26.8295C2.58767 25.887 3.19603 25.1008 3.2825 24.0448C3.35879 23.1214 4.24935 23.1695 4.9784 23.421C5.7753 23.6954 6.55144 24.0415 7.35697 24.2884C8.1625 24.5353 8.8553 24.6681 9.36346 23.6239C9.88272 22.5265 10.0733 21.6123 9.18241 20.6599C8.87646 20.3298 8.26769 20.3375 8.13281 19.6188C9.45994 19.8697 10.8303 19.7648 12.1065 19.3146C13.4442 18.8144 14.7335 18.1907 15.9577 17.4516C16.5978 17.0846 17.1647 16.7902 17.9152 16.9525C18.9203 17.162 19.1924 16.651 19.0363 15.7552C18.8532 14.766 19.279 14.2285 20.2448 14.0553C20.6337 14.5724 19.9755 14.9151 20.056 15.3649C20.272 15.5277 20.4365 15.75 20.5297 16.0051C21.3053 17.1763 22.6201 16.9588 23.7335 17.2201C24.1734 17.3118 24.6842 17.1052 25.1313 17.2598C26.4525 17.7225 27.4422 17.5601 27.8019 15.9876C27.8399 15.8053 28.016 15.5318 28.1418 15.5697C29.4836 15.9753 29.4741 14.516 30.1946 14.0838C31.0179 13.8692 31.7121 14.5523 32.8572 14.4106C31.667 13.905 30.6422 14.1801 29.7398 13.8544C27.9934 12.6856 27.9093 11.9746 29.3444 10.553C29.5912 10.3313 29.8134 10.0833 30.007 9.81327C30.1106 9.65052 30.2066 9.46862 30.0694 9.29077C30.0406 9.2529 30.0043 9.22142 29.9629 9.19826C29.9214 9.1751 29.8756 9.16076 29.8284 9.15613C29.7812 9.15149 29.7335 9.15666 29.6883 9.17132C29.6431 9.18598 29.6013 9.2098 29.5655 9.24133C28.6713 10.047 27.5517 10.4427 26.522 11.0065C25.9449 11.3222 26.0477 11.8879 26.3976 12.3559C26.9894 13.126 26.7443 13.6748 25.9656 14.0656C25.3462 14.3754 24.9795 14.9222 24.5368 15.4152C23.5922 16.4766 22.7856 16.5133 21.8154 15.6351C21.806 15.5688 21.7965 15.5024 21.7843 15.4355C22.1329 14.5161 21.5829 13.7957 21.2717 13.0169C20.9975 12.3393 20.5726 12.7336 20.2364 12.883C19.1511 13.3649 18.3575 13.0327 17.9401 11.9829C17.4704 10.8081 18.027 9.71267 19.1957 9.31835C19.9888 9.05351 20.83 9.07376 21.6472 8.79054C23.171 8.25369 24.125 6.96599 25.4796 6.20952C27.5225 5.06393 29.6004 4.865 31.7811 5.2464C33.4911 5.54433 34.9031 6.38003 36.3834 7.36166C37.4302 8.05392 38.9647 8.4411 40.237 9.06917C40.6712 9.28552 41.3976 9.5218 41.0954 10.1494C40.8877 10.5743 40.2043 10.4524 39.6849 10.3938C38.8082 10.293 38.1515 9.7084 37.362 9.41216C36.925 9.25083 36.5257 9.00663 35.841 9.25311C36.9816 9.8713 36.8186 11.239 37.8051 11.9275C38.4176 12.3478 38.9125 12.5797 39.5693 12.1606C39.5442 11.8628 39.6552 11.7484 39.9491 11.8857C40.9681 11.5685 41.7932 10.6899 43.0163 10.9127C43.3838 10.9893 43.178 10.5133 43.1921 10.2646C43.2046 10.0653 42.7966 9.66711 43.354 9.66917C43.6274 9.66763 44.0476 9.60305 44.0959 10.096C44.2187 11.3184 45.0292 11.0397 45.7202 10.7769C46.9823 10.2968 48.0945 10.2155 49.4661 10.7852C50.3964 11.1723 51.7389 11.5048 52.8937 10.8706C52.9605 10.3548 53.2083 10.3509 53.5572 10.6284L56.9696 12.3757C56.8848 13.3676 56.067 13.4722 55.368 13.704C54.8306 13.8846 54.2792 14.0213 53.7354 14.1772C53.098 14.5593 53.9652 15.3049 53.3689 15.6985C53.4652 15.9615 53.5497 16.2249 53.6515 16.489C54.2448 17.1131 54.0076 17.8889 54.0302 18.6164C53.9906 19.3221 53.6039 20.0346 54.0625 20.733C54.6806 21.7397 54.3364 22.2064 53.2213 22.2461C52.4923 22.6355 53.2137 23.0493 53.1998 23.4502C53.2187 23.5936 53.277 23.7287 53.3682 23.8403C53.4595 23.9519 53.5799 24.0354 53.716 24.0816C54.009 23.7213 54.4202 23.491 54.7435 23.1662C55.6261 23.9355 55.3321 24.9833 55.2363 25.9027C55.1445 26.7614 54.3773 26.7624 53.6896 26.6893C53.4202 26.323 52.904 26.2768 52.6401 25.9262L52.0967 25.7457C51.906 25.0299 51.3137 25.4186 50.9036 25.3097C50.1044 25.6874 49.4694 25.2214 48.7977 24.9175C48.6586 25.039 48.5542 25.1957 48.4956 25.3714C48.4371 25.5471 48.4263 25.7352 48.4647 25.9162C48.5406 26.3216 48.724 26.6986 48.9955 27.0072C48.9627 27.1642 48.93 27.3213 48.8973 27.4783C48.896 28.195 49.5352 28.9193 48.8646 29.6282C45.7034 30.8567 45.7028 30.8595 47.2826 33.8722C47.5827 34.3542 47.7154 34.9232 47.66 35.4902C47.5926 35.9531 47.4133 36.2698 46.9076 35.9361Z" fill="#C02226"/>
<path d="M3.94928 30.057C3.99255 30.1421 4.07585 30.3 4.07922 30.2977C5.18191 29.7463 6.38602 30.3806 7.48821 29.9988C8.05527 29.8009 8.74509 29.5438 8.90666 28.922C9.1991 27.7978 10.0286 27.4001 10.9318 26.9416C11.4935 26.6578 12.4115 26.8112 12.4825 25.6905C12.5041 25.2941 13.3232 25.2805 13.7395 25.5136C14.6751 26.0422 15.5705 25.8719 16.4191 25.4108C17.2676 24.9498 17.7404 25.2181 17.9961 26.0819C18.3371 27.359 19.1622 28.4492 20.2943 29.1186C21.309 29.7281 21.8327 30.6859 21.2519 32.0924C21.7886 31.7477 22.3706 31.673 22.1717 30.9409C22.1252 30.807 22.119 30.6622 22.1539 30.5246C22.497 29.6451 22.5127 29.6396 21.7282 28.8878C20.859 28.0541 20.4515 26.9011 19.7229 25.9649C19.6548 25.8959 19.6038 25.8117 19.574 25.7191C19.5443 25.6265 19.5366 25.5281 19.5516 25.4319C19.5666 25.3356 19.6038 25.2442 19.6603 25.1649C19.7168 25.0857 19.7909 25.0209 19.8768 24.9757C20.261 24.7632 20.3835 25.0813 20.6584 25.2674C21.7944 26.0895 22.3898 27.4836 23.6983 28.1192C24.4285 28.4763 24.6219 29.2628 24.5414 29.9278C24.3438 31.461 25.0046 32.263 26.3591 32.5659C26.5766 33.4042 25.3981 32.5353 25.5647 33.325C25.67 33.8093 25.8545 34.4154 26.3069 34.419C26.7594 34.4226 27.0965 33.8784 27.0984 33.3257C27.1238 33.0437 27.0835 32.7597 26.9808 32.4964C26.2882 31.164 27.084 31.207 28.0005 31.3395C28.8059 31.127 29.5088 31.1974 29.941 32.0366C29.754 32.9341 30.1094 33.807 30.3352 34.5915C30.5954 35.5032 31.4493 35.769 32.6074 35.8436C33.8653 35.9273 35.0215 37.0286 36.5139 36.5028C36.8274 36.3926 37.1009 37.0319 36.91 37.3901C36.4704 38.2027 36.3341 39.1078 36.0103 39.9504C35.5583 41.1291 34.7747 41.8641 33.4164 41.7185C33.2735 41.469 33.0633 41.2655 32.81 41.1314C32.5568 40.9973 32.2709 40.9382 31.9852 40.9608C29.9422 41.006 28.2988 40.0402 26.685 38.9605C26.1749 38.62 25.7609 38.1533 25.1223 38.0114C24.3845 37.8576 23.8566 37.8676 23.6425 38.7974C23.4283 39.7272 23.0212 40.0081 21.9513 39.51C20.0971 38.6495 19.2859 36.5344 17.225 35.9409C16.6358 35.7712 16.3586 34.9409 16.6939 34.0012C17.3262 32.2222 16.9496 31.8686 15.091 32.0606C14.1899 32.1448 13.2835 31.9861 12.4648 31.6009C11.981 31.3582 11.4533 31.2161 10.9133 31.1829C10.3732 31.1498 9.83172 31.2263 9.321 31.4079C7.309 32.1825 5.52892 32.0953 3.79731 30.8418C3.84171 30.573 3.8955 30.315 3.94928 30.057Z" fill="#B01F23"/>
</svg>
