<svg width="55" height="55" viewBox="0 0 55 55" fill="none" xmlns="http://www.w3.org/2000/svg">
<g filter="url(#filter0_d_0_593)">
<rect x="1" y="1" width="51" height="51" rx="3" fill="#FAEA18"/>
<rect x="1" y="1" width="51" height="51" rx="3" stroke="#021689"/>
</g>
<g filter="url(#filter1_d_0_593)">
<path d="M41.1475 25.6138C40.7531 23.9475 28.1386 14.6421 26.9443 13.6097C26.4534 13.1853 26.0731 13.0152 25.75 13.001C25.2872 12.9806 24.9419 13.28 24.5573 13.6097C24.5573 13.6097 10.9222 24.6047 10.3585 25.6138C9.79485 26.623 9.87318 26.6273 10.7556 26.6273C10.7556 26.6273 14.2098 25.4423 14.2098 26.6675C14.2098 27.8928 15.137 38.9198 15.137 38.9198C15.137 39.5897 15.7106 40.1452 16.4121 40.1452H22.1662L20.891 30.9559C20.891 30.2859 20.2836 29.118 22.7131 28.5054C25.1426 27.8928 28.7869 28.5054 28.7869 28.5054C30.609 29.118 30.1224 29.118 30.062 30.9559C30.0017 32.7937 28.1795 40.1452 28.1795 40.1452H35.0981C35.8041 40.1452 36.3732 39.5939 36.3732 38.9198C36.3732 38.9198 35.6886 27.5121 36.3732 26.6273C37.2902 25.4423 40.7547 26.623 40.7547 26.623C40.7547 26.623 41.5418 27.2802 41.1475 25.6138Z" fill="white"/>
<path d="M24.5573 13.6097L24.8711 13.9989L24.877 13.9942L24.8827 13.9893C25.3074 13.6253 25.4985 13.4904 25.728 13.5005C25.8883 13.5076 26.1634 13.5955 26.6173 13.9879C26.897 14.2297 27.7512 14.8865 28.8905 15.7625C29.0255 15.8663 29.1645 15.9732 29.3071 16.0829C30.6637 17.1264 32.3621 18.4363 34.0348 19.7655C35.7089 21.0958 37.351 22.4403 38.5967 23.5533C39.2204 24.1105 39.7367 24.6027 40.106 25.0016C40.291 25.2014 40.4319 25.3703 40.5294 25.5066C40.5779 25.5744 40.6119 25.629 40.6343 25.671C40.6557 25.7112 40.661 25.7295 40.661 25.7295C40.6611 25.7295 40.661 25.7293 40.6609 25.729C40.6953 25.8742 40.7184 25.9937 40.7334 26.0912C40.6332 26.0604 40.4955 26.0195 40.3302 25.9746C39.9793 25.8792 39.4976 25.7636 38.9819 25.6863C38.471 25.6097 37.9014 25.5666 37.3835 25.6305C36.8768 25.6929 36.3272 25.8698 35.9778 26.3213C35.8669 26.4645 35.8101 26.6489 35.7749 26.7914C35.7354 26.9517 35.7047 27.1422 35.6801 27.3509C35.6307 27.7696 35.6008 28.3051 35.5846 28.9078C35.5521 30.1158 35.5738 31.6356 35.6167 33.1198C35.6596 34.6056 35.724 36.0628 35.7775 37.1481C35.8043 37.6909 35.8285 38.141 35.8459 38.4555C35.8546 38.6128 35.8617 38.7362 35.8665 38.8203L35.8721 38.9164L35.8731 38.9325C35.8659 39.308 35.5407 39.6452 35.0981 39.6452H28.8164C28.8555 39.4838 28.901 39.2951 28.9515 39.0841C29.1236 38.3647 29.3538 37.3859 29.5861 36.349C29.8181 35.3128 30.0529 34.2155 30.2337 33.26C30.4122 32.3168 30.5452 31.4761 30.5618 30.9723C30.5735 30.6136 30.6019 30.3326 30.6265 30.0898C30.632 30.0352 30.6373 29.9826 30.6422 29.9314C30.6661 29.6821 30.6925 29.3857 30.6064 29.118C30.5036 28.7985 30.2763 28.5992 30.0036 28.4498C29.7487 28.3101 29.395 28.1823 28.9462 28.0315L28.9088 28.0189L28.8698 28.0123L28.7869 28.5054C28.8698 28.0123 28.8697 28.0123 28.8696 28.0123L28.8694 28.0122L28.8686 28.0121L28.8661 28.0117L28.8571 28.0102L28.8239 28.0049C28.7951 28.0003 28.7531 27.9938 28.6993 27.9857C28.5915 27.9697 28.436 27.9476 28.2421 27.9232C27.8546 27.8743 27.3125 27.8157 26.6925 27.7767C25.4652 27.6993 23.8833 27.6947 22.5909 28.0206C21.3093 28.3437 20.6488 28.8594 20.417 29.55C20.3089 29.872 20.3146 30.1802 20.336 30.4208C20.3441 30.5119 20.3557 30.6037 20.3654 30.6809C20.3683 30.7032 20.3709 30.7244 20.3733 30.7439C20.385 30.84 20.391 30.9052 20.391 30.9559V30.9904L20.3957 31.0246L21.592 39.6452H16.4121C15.969 39.6452 15.637 39.2961 15.637 38.9198V38.8988L15.6353 38.8779L15.137 38.9198C15.6353 38.8779 15.6353 38.8778 15.6352 38.8777L15.6352 38.8774L15.6351 38.8759L15.6346 38.8699L15.6326 38.8463L15.6249 38.7539L15.5954 38.402C15.5701 38.0982 15.5339 37.6628 15.4904 37.1365C15.4035 36.0839 15.2877 34.6677 15.1718 33.2134C14.9387 30.2866 14.7098 27.2541 14.7098 26.6675C14.7098 26.3814 14.602 26.1276 14.3956 25.9421C14.2067 25.7724 13.9719 25.6925 13.763 25.6531C13.3489 25.5748 12.8449 25.6211 12.401 25.6947C11.9437 25.7705 11.4922 25.8856 11.1588 25.9803C10.9911 26.0279 10.8512 26.0709 10.7527 26.1022C10.7229 26.1117 10.6969 26.1201 10.675 26.1273C10.6657 26.1272 10.6566 26.1272 10.6477 26.1272C10.6881 26.0509 10.7368 25.9619 10.7951 25.8577C10.795 25.8578 10.7952 25.8575 10.7959 25.8566C10.8026 25.8477 10.8477 25.7878 10.9712 25.6594C11.0929 25.5329 11.2607 25.3701 11.4711 25.1743C11.8912 24.7833 12.4646 24.2758 13.1417 23.6908C14.4951 22.5218 16.249 21.0555 17.9878 19.6188C19.726 18.1824 21.4469 16.7774 22.7334 15.7314C23.3766 15.2084 23.9112 14.7752 24.2848 14.4728C24.4717 14.3216 24.6183 14.2031 24.7182 14.1224L24.8322 14.0303L24.8613 14.0068L24.8687 14.0009L24.8705 13.9994L24.871 13.999C24.8711 13.9989 24.8711 13.9989 24.5573 13.6097ZM40.7547 26.623C40.8042 26.4775 40.8386 26.3768 40.8623 26.307C40.8624 26.3069 40.8624 26.3069 40.8624 26.3069L40.7547 26.623ZM41.1086 26.2594C41.1165 26.2618 41.1207 26.264 41.1208 26.2644C41.1209 26.2648 41.117 26.2636 41.1086 26.2594Z" stroke="#021689"/>
</g>
<defs>
<filter id="filter0_d_0_593" x="0.5" y="0.5" width="54" height="54" filterUnits="userSpaceOnUse" color-interpolation-filters="sRGB">
<feFlood flood-opacity="0" result="BackgroundImageFix"/>
<feColorMatrix in="SourceAlpha" type="matrix" values="0 0 0 0 0 0 0 0 0 0 0 0 0 0 0 0 0 0 127 0" result="hardAlpha"/>
<feOffset dx="2" dy="2"/>
<feComposite in2="hardAlpha" operator="out"/>
<feColorMatrix type="matrix" values="0 0 0 0 0.0117647 0 0 0 0 0.580392 0 0 0 0 0.764706 0 0 0 1 0"/>
<feBlend mode="normal" in2="BackgroundImageFix" result="effect1_dropShadow_0_593"/>
<feBlend mode="normal" in="SourceGraphic" in2="effect1_dropShadow_0_593" result="shape"/>
</filter>
<filter id="filter1_d_0_593" x="10" y="13" width="33.258" height="29.1452" filterUnits="userSpaceOnUse" color-interpolation-filters="sRGB">
<feFlood flood-opacity="0" result="BackgroundImageFix"/>
<feColorMatrix in="SourceAlpha" type="matrix" values="0 0 0 0 0 0 0 0 0 0 0 0 0 0 0 0 0 0 127 0" result="hardAlpha"/>
<feOffset dx="2" dy="2"/>
<feComposite in2="hardAlpha" operator="out"/>
<feColorMatrix type="matrix" values="0 0 0 0 0.0117647 0 0 0 0 0.580392 0 0 0 0 0.764706 0 0 0 1 0"/>
<feBlend mode="normal" in2="BackgroundImageFix" result="effect1_dropShadow_0_593"/>
<feBlend mode="normal" in="SourceGraphic" in2="effect1_dropShadow_0_593" result="shape"/>
</filter>
</defs>
</svg>
