<svg width="119" height="87" viewBox="0 0 119 87" fill="none" xmlns="http://www.w3.org/2000/svg">
<path d="M15.241 19.9646C13.2559 20.0248 11.3586 20.9462 9.31442 20.523L13.2921 19.5583C13.4854 18.8261 12.7405 19.2502 12.5674 18.9654C12.2827 18.5754 11.4362 18.1209 12.7202 17.9262C12.9598 17.8913 13.3289 17.6258 13.3587 17.4272C13.6467 15.3071 15.2163 15.8743 16.4688 15.9422C17.5656 16.0041 18.5995 16.0616 19.5314 15.0472C18.4019 15.0166 17.3256 15.1903 16.554 14.251C18.1752 12.801 19.9995 14.7527 21.6471 13.9285C21.0638 12.5457 21.2522 12.2134 22.6821 12.5173C23.7818 12.7465 24.7213 12.281 25.7416 12.2362C28.5604 12.0807 31.379 12.5118 34.0215 13.5027C35.9393 14.239 37.8964 14.843 39.6798 15.9317C40.4385 16.3323 41.3043 16.481 42.1535 16.3566C44.0706 16.1408 46.0102 16.3523 47.8345 16.9761C49.2799 17.4705 50.85 17.7568 51.9456 18.7724C52.713 19.5161 53.7396 19.9275 54.8063 19.9189C55.4019 19.9465 55.1989 20.823 55.6284 21.2432C56.9148 20.0336 58.3735 20.0596 59.8045 20.9432C60.8226 21.5505 62.14 21.1813 63.114 22.2505C63.4453 22.6122 64.9821 21.8879 65.9527 21.6073C66.1105 21.5612 66.3647 21.2338 66.1943 21.0198C65.3035 19.886 66.5607 20.1539 66.8903 20.0499C67.6458 19.8124 69.1608 18.9137 68.022 21.032C67.9987 21.1658 68.0021 21.3028 68.0319 21.4351C68.0617 21.5674 68.1172 21.6923 68.1954 21.8027C69.4996 21.8317 69.1917 22.3469 68.6951 23.1125C68.5337 23.3715 68.9638 23.4962 69.28 23.3866C69.9441 23.1417 70.654 22.997 71.2164 22.529C71.4332 22.3402 71.7043 22.2261 71.9897 22.2035C72.2752 22.1808 72.5601 22.2508 72.8027 22.4031C73.3067 22.675 73.6097 22.9635 72.9125 23.5205C71.8258 24.3855 70.7187 24.819 69.3948 24.2855C68.3015 23.844 67.0555 25.0415 65.9144 23.7561C66.8254 25.295 65.8801 25.3145 64.9964 25.2473C62.6214 25.0595 60.5864 26.2653 58.3945 26.8296C57.7278 27.0038 56.8956 27.6233 57.0268 28.0809C57.2413 28.822 57.2364 29.8628 58.3501 30.2061C59.6586 30.6047 60.4393 31.9321 61.7566 32.3999C62.0975 32.5207 62.0088 32.8621 61.8357 33.1216C61.6625 33.381 61.4351 33.6497 61.2544 33.931C60.8723 34.5654 60.8062 35.3007 61.4159 35.7204C61.5488 35.8025 61.6974 35.8556 61.8521 35.8764C62.0067 35.8973 62.1641 35.8853 62.3141 35.8414C62.4641 35.7975 62.6035 35.7225 62.7232 35.6213C62.8429 35.5201 62.9404 35.3949 63.0093 35.2537C63.6385 33.6291 65.0194 33.3317 66.398 32.8084C67.1628 32.526 68.1442 32.1804 67.888 30.9565C67.8805 30.9091 67.8817 30.8608 67.8916 30.8138C67.9764 30.4072 70.6485 28.2076 71.162 28.1274C72.089 27.987 74.141 29.041 74.5744 29.8746C74.6906 30.0571 74.739 30.2751 74.7111 30.4903C74.6833 30.7056 74.5809 30.9043 74.4221 31.0514C74.0525 31.4309 74.3397 31.7395 74.5006 32.0686C74.7366 32.5392 75.1264 32.439 75.4786 32.3105C76.2736 32.0226 77.0589 31.6976 77.9914 31.3214L77.7835 36.7503C78.3367 36.7866 79.606 36.3693 79.7029 37.563C79.7998 38.7566 78.5128 38.8541 77.6554 39.0236C75.9154 39.3574 74.2102 39.6077 72.4084 38.9834C70.6067 38.3591 68.7895 39.063 67.0967 39.8953C68.4561 40.0353 69.8123 39.1738 71.1546 39.9394C71.1759 40.8685 69.3116 40.7257 70.0355 42.0471C70.5408 42.9396 71.4058 43.0409 72.3376 43.0859C71.0196 44.0432 69.402 43.5948 68.0429 44.1777C67.9628 44.2136 67.7419 44.0886 67.696 43.9883C67.6782 43.9446 67.67 43.8976 67.6719 43.8504C67.6737 43.8032 67.6857 43.7569 67.7069 43.7147C67.7281 43.6724 67.758 43.6353 67.7947 43.6057C67.8314 43.5761 67.874 43.5548 67.9195 43.5433C68.2359 43.419 68.5494 43.3088 68.8468 43.1923C69.1472 42.8101 68.9286 42.7996 68.6046 42.8491C67.027 42.7661 65.2874 42.8746 64.1055 43.7227C61.786 45.3871 58.892 45.3896 56.5648 46.868C56.2308 47.0764 55.8465 47.3036 55.8669 47.6794C55.9581 49.4162 54.7212 49.9982 53.4509 50.2806C52.3142 50.5353 51.3261 51.0668 50.3096 51.525C48.6074 52.2909 48.9132 54.0432 48.6622 55.4979C48.6038 55.7784 48.7486 56.1012 48.6537 56.3331C48.4623 56.8053 48.1931 57.428 47.6732 57.4133C47.1534 57.3986 47.0899 56.7416 47.077 56.2736C47.0607 55.6411 46.7903 55.0433 47.2168 54.3626C47.7013 53.5857 47.0278 52.8308 46.3861 52.7731C45.8879 52.7181 45.4168 52.5182 45.0303 52.1979C44.0477 51.5043 43.1642 51.2412 42.1946 52.2827C41.5966 52.9219 41.0518 52.1908 40.5952 51.9142C38.6616 50.724 35.5614 51.5204 34.4866 53.5409C34.058 54.3752 33.5881 55.1875 33.0787 55.9747C32.3508 57.0696 32.5753 58.2781 32.728 59.4132C32.8589 60.3183 33.3735 61.3474 34.4502 61.4226C35.621 61.5057 36.9716 61.7024 37.7462 60.3831C38.0258 59.9059 38.2934 59.4584 38.9074 59.4956C39.5213 59.5329 40.3672 59.1678 40.7275 59.8926C41.0346 60.5097 40.3462 60.969 40.0253 61.4493C39.5353 62.2003 39.0053 62.9241 38.4375 63.6174C37.7715 64.415 38.1587 64.5923 38.9397 64.7756C39.672 64.9282 40.4418 64.6497 41.1527 65.0993C41.7689 65.4882 42.2449 65.7133 41.6964 66.6027C41.2357 67.3494 41.0244 68.2652 40.7724 69.1257C40.2973 70.7502 41.4397 72.1267 43.0918 71.9356C43.4664 71.8751 43.85 71.9316 44.1911 72.0974L44.1566 72.2629C43.6207 72.4643 42.7789 72.0986 42.6838 73.1264C42.6662 73.3363 42.3557 73.3067 42.1197 73.1288C40.6256 72.0184 39.0166 71.1241 38.6508 68.9351C38.5066 68.0798 38.3692 66.746 36.7605 66.5336C35.7987 66.4092 34.8868 65.5578 34.4176 64.4358C34.0014 63.436 33.3377 62.648 32.0107 63.2025C31.8583 63.274 31.6899 63.3036 31.5226 63.2882C31.3553 63.2729 31.1952 63.2132 31.0586 63.1152C29.5357 61.9198 27.9416 60.815 26.5201 59.5091C25.774 58.8239 25.0654 57.889 25.9311 56.6766C26.3088 56.1466 26.0541 55.4732 25.8538 54.8871C25.2704 53.1707 24.7048 51.4521 24.071 49.7544C23.7907 49.0083 23.8315 48.2413 23.8591 47.5096C23.8875 46.8718 23.8807 46.2353 23.1436 46.2455C22.4065 46.2558 22.3423 46.8979 22.4691 47.5301C22.8282 49.526 23.0451 51.5456 23.118 53.5735C23.1308 53.8045 23.2576 54.0328 22.9827 54.3618C22.5351 53.4433 21.6943 52.7383 22.1946 51.5785C22.2288 51.4978 22.2677 51.3391 22.2345 51.3175C20.8463 50.3259 21.8109 48.8619 21.5439 47.662C21.1712 45.9661 21.8278 44.2096 20.5471 42.4795C19.8411 41.5042 20.1022 39.3873 20.911 37.9464C21.5654 36.7771 22.4451 35.7506 23.4983 34.9274C24.5208 34.1338 25.4897 33.3321 26.1782 32.2173C26.5244 31.6574 26.9067 31.1196 27.3503 32.169C27.4693 32.4484 27.546 32.4146 28.221 31.894C28.6859 31.0574 28.2227 30.2556 28.1512 29.4418C27.5022 28.5135 27.6119 27.0118 28.3953 26.0689C29.4281 24.8211 29.1869 23.372 28.178 22.2194C26.8998 20.7561 25.0803 20.3564 23.5602 19.384C23.4301 19.2861 23.2782 19.2215 23.1177 19.1957C22.9571 19.1699 22.7926 19.1836 22.6383 19.2357C21.596 19.6187 20.4534 19.616 19.4152 19.2281C18.3866 18.8528 17.2477 19.6337 16.1683 19.9618C15.8602 20.158 15.5403 19.825 15.241 19.9646Z" fill="#41B64A"/>
<path d="M109.115 29.642C107.661 30.249 106.092 30.2059 104.66 29.884C103.563 29.6117 102.404 29.7542 101.402 30.2845C100.668 30.6553 99.9184 30.9059 99.0935 30.7661C96.994 30.4133 95.3511 31.215 93.9324 32.7248C93.1839 33.5286 92.3745 34.6241 91.0929 33.8039C89.0716 32.5046 89.2329 31.912 89.4693 29.8719C89.6792 28.0428 90.571 27.5557 91.9772 27.0529C93.0443 26.6725 93.2456 25.6229 92.5449 24.678C92.3622 24.4266 92.2742 24.118 92.2966 23.8068C92.208 21.7926 90.9824 20.551 88.9638 20.5487C88.2407 20.5472 87.6901 20.2481 87.0984 19.993C86.8105 19.8686 86.555 19.631 86.7617 19.1971C86.9222 18.8589 87.0762 18.6218 87.4926 18.7291C90.3239 19.4451 93.0465 18.1047 95.847 18.2583C96.2663 18.2813 96.7439 18.2199 97.0926 18.4009C100.223 20.0103 103.692 19.3961 106.958 20.0066C110.033 20.5833 113.414 20.3488 115.986 22.6874C116.762 23.3936 117.768 22.6112 118.606 23.2335C118.491 23.3944 118.336 23.5221 118.157 23.6034C117.978 23.6848 117.78 23.717 117.585 23.6968C116.089 23.5138 115.007 23.452 114.028 25.2788C113.179 26.8721 111.092 27.713 108.938 26.9774C108.92 27.7928 109.623 27.875 109.994 28.2566C110.255 28.5336 110.605 28.8348 110.453 29.1893C110.376 29.3607 109.863 29.3415 109.536 29.405C108.976 29.3058 108.797 28.534 108.027 28.5608C108.196 29.1753 109.178 28.9353 109.115 29.642Z" fill="#41B64A"/>
</svg>
