<svg width="65" height="65" viewBox="0 0 65 65" fill="none" xmlns="http://www.w3.org/2000/svg">
<rect width="65" height="65" rx="32.5" fill="white"/>
<rect x="6" y="6" width="53" height="53" rx="26.5" fill="#0A84FF"/>
<g filter="url(#filter0_d_0_622)">
<path d="M32.0091 44.986C27.1974 44.986 22.3856 44.9536 17.5739 44.9999C16.9731 45.003 16.3776 44.8965 15.8217 44.6866C15.2659 44.4767 14.7607 44.1675 14.3355 43.777C13.9102 43.3864 13.5732 42.9222 13.344 42.4112C13.1148 41.9001 12.9979 41.3523 13 40.7995C13.0151 35.908 13 31.0166 13 26.1242C13 23.7295 14.9695 21.9256 17.5709 21.9191C18.5032 21.9191 19.4355 21.9191 20.3678 21.9191C21.1963 21.9237 21.8172 21.6028 22.2415 20.9471C22.8536 20.0005 23.4688 19.0569 24.087 18.1165C25.0042 16.7253 26.3245 15.9945 28.1115 16C30.719 16.0075 33.3274 16 35.9349 16C37.6584 16 38.9535 16.7058 39.8536 18.0349C40.4936 18.98 41.1094 19.9371 41.7253 20.8989C42.1677 21.5945 42.8078 21.9321 43.6836 21.9191C44.5907 21.908 45.4979 21.9145 46.405 21.9191C49.0356 21.9247 50.995 23.7202 50.997 26.1381C51.001 31.0172 51.001 35.8972 50.997 40.7781C50.997 42.9048 49.5123 44.5436 47.2405 44.9517C46.9918 44.987 46.74 44.9998 46.4886 44.9897L32.0091 44.986ZM22.7878 31.9802C22.7233 36.2651 26.4283 40.4387 31.9708 40.4619C37.3903 40.486 41.2284 36.3903 41.2183 31.9552C41.2062 27.4468 37.2472 23.4958 32.002 23.4958C26.7569 23.4958 22.7283 27.4421 22.7878 31.9802Z" fill="#F6EE22"/>
<path d="M32.0091 44.986C27.1974 44.986 22.3856 44.9536 17.5739 44.9999C16.9731 45.003 16.3776 44.8965 15.8217 44.6866C15.2659 44.4767 14.7607 44.1675 14.3355 43.777C13.9102 43.3864 13.5732 42.9222 13.344 42.4112C13.1148 41.9001 12.9979 41.3523 13 40.7995C13.0151 35.908 13 31.0166 13 26.1242C13 23.7295 14.9695 21.9256 17.5709 21.9191C18.5032 21.9191 19.4355 21.9191 20.3678 21.9191C21.1963 21.9237 21.8172 21.6028 22.2415 20.9471C22.8536 20.0005 23.4688 19.0569 24.087 18.1165C25.0042 16.7253 26.3245 15.9945 28.1115 16C30.719 16.0075 33.3274 16 35.9349 16C37.6584 16 38.9535 16.7058 39.8536 18.0349C40.4936 18.98 41.1094 19.9371 41.7253 20.8989C42.1677 21.5945 42.8078 21.9321 43.6836 21.9191C44.5907 21.908 45.4979 21.9145 46.405 21.9191C49.0356 21.9247 50.995 23.7202 50.997 26.1381C51.001 31.0172 51.001 35.8972 50.997 40.7781C50.997 42.9048 49.5123 44.5436 47.2405 44.9517C46.9918 44.987 46.74 44.9998 46.4886 44.9897L32.0091 44.986ZM22.7878 31.9802C22.7233 36.2651 26.4283 40.4387 31.9708 40.4619C37.3903 40.486 41.2284 36.3903 41.2183 31.9552C41.2062 27.4468 37.2472 23.4958 32.002 23.4958C26.7569 23.4958 22.7283 27.4421 22.7878 31.9802Z" stroke="#231F20" stroke-width="0.83" stroke-miterlimit="10"/>
</g>
<path d="M31.4663 37.9974C28.208 38.0577 24.9849 35.7512 25.0001 32.477C25.0124 29.5808 27.7056 27 31.4976 27C35.3447 27 38.0198 29.6291 37.9999 32.5333C37.9771 35.7754 34.7597 38.0891 31.4663 37.9974Z" fill="#F6EE22" stroke="#231F20" stroke-width="0.83" stroke-miterlimit="10"/>
<defs>
<filter id="filter0_d_0_622" x="12.585" y="15.585" width="39.83" height="30.83" filterUnits="userSpaceOnUse" color-interpolation-filters="sRGB">
<feFlood flood-opacity="0" result="BackgroundImageFix"/>
<feColorMatrix in="SourceAlpha" type="matrix" values="0 0 0 0 0 0 0 0 0 0 0 0 0 0 0 0 0 0 127 0" result="hardAlpha"/>
<feOffset dx="1" dy="1"/>
<feComposite in2="hardAlpha" operator="out"/>
<feColorMatrix type="matrix" values="0 0 0 0 0 0 0 0 0 0 0 0 0 0 0 0 0 0 0.25 0"/>
<feBlend mode="normal" in2="BackgroundImageFix" result="effect1_dropShadow_0_622"/>
<feBlend mode="normal" in="SourceGraphic" in2="effect1_dropShadow_0_622" result="shape"/>
</filter>
</defs>
</svg>
