<svg width="55" height="55" viewBox="0 0 55 55" fill="none" xmlns="http://www.w3.org/2000/svg">
<g filter="url(#filter0_d_0_594)">
<rect x="1" y="1" width="51" height="51" rx="3" fill="#FAEA18"/>
<rect x="1" y="1" width="51" height="51" rx="3" stroke="#021689"/>
</g>
<g clip-path="url(#clip0_0_594)">
<g filter="url(#filter1_d_0_594)">
<path d="M26.3942 21.4745C24.038 21.6018 21.9952 21.5763 19.9398 21.589C19.5262 21.589 19.4761 21.7035 19.6766 22.0597C20.04 22.683 20.3784 23.3191 20.7168 23.9552C20.9424 24.3622 20.9048 24.4258 20.4411 24.5022C19.9523 24.5785 19.4635 24.6294 18.9747 24.7184C18.699 24.7693 18.5361 24.693 18.3982 24.4386C17.9345 23.5735 17.4457 22.7212 16.9695 21.8689C16.8567 21.6781 16.8316 21.4873 16.8818 21.271C17.0698 20.4696 17.358 19.6936 17.8092 19.0067C18.5988 17.7727 19.7142 17.0985 21.1555 17.1367C23.9252 17.2257 26.6825 17.1494 29.4522 17.2639C31.1943 17.3402 32.9489 17.4293 34.691 17.3656C36.6336 17.2893 37.9495 18.2052 38.9647 19.7572C40.9449 22.7848 40.8446 26.6775 38.6889 29.5906C38.526 29.8068 38.4634 30.0231 38.4508 30.303C38.2879 34.0557 38.125 37.8084 37.962 41.5611C37.9495 41.9427 37.8242 42.1081 37.4231 42.1081C35.5683 42.0827 33.7009 42.0572 31.846 42.0445C31.5452 42.0445 31.4324 41.9173 31.4199 41.612C31.3322 37.7575 31.3447 33.903 31.3196 30.0485C31.3196 29.6669 31.5076 29.6033 31.8209 29.5906C33.4001 29.5651 34.9667 29.6287 36.5458 29.527C37.0471 29.5015 37.0722 29.4761 36.8341 29.0436C35.5056 26.652 34.1771 24.2732 32.8612 21.8689C32.6857 21.5509 32.4601 21.4745 32.1343 21.4745C30.129 21.4745 28.1112 21.4745 26.3942 21.4745Z" fill="white"/>
<path d="M26.3807 20.9745H26.3942H26.4043H26.4143H26.4244H26.4345H26.4446H26.4547H26.4648H26.4749H26.485H26.4952H26.5053H26.5154H26.5256H26.5357H26.5459H26.556H26.5662H26.5764H26.5866H26.5968H26.607H26.6172H26.6274H26.6376H26.6478H26.6581H26.6683H26.6785H26.6888H26.6991H26.7093H26.7196H26.7299H26.7401H26.7504H26.7607H26.771H26.7813H26.7917H26.802H26.8123H26.8226H26.833H26.8433H26.8537H26.864H26.8744H26.8848H26.8952H26.9055H26.9159H26.9263H26.9367H26.9471H26.9576H26.968H26.9784H26.9888H26.9993H27.0097H27.0202H27.0306H27.0411H27.0516H27.062H27.0725H27.083H27.0935H27.104H27.1145H27.125H27.1355H27.1461H27.1566H27.1671H27.1777H27.1882H27.1988H27.2093H27.2199H27.2305H27.241H27.2516H27.2622H27.2728H27.2834H27.294H27.3046H27.3152H27.3258H27.3365H27.3471H27.3577H27.3684H27.379H27.3897H27.4003H27.411H27.4217H27.4323H27.443H27.4537H27.4644H27.4751H27.4858H27.4965H27.5072H27.518H27.5287H27.5394H27.5501H27.5609H27.5716H27.5824H27.5931H27.6039H27.6147H27.6254H27.6362H27.647H27.6578H27.6686H27.6794H27.6902H27.701H27.7118H27.7226H27.7335H27.7443H27.7551H27.766H27.7768H27.7877H27.7985H27.8094H27.8202H27.8311H27.842H27.8529H27.8637H27.8746H27.8855H27.8964H27.9073H27.9182H27.9292H27.9401H27.951H27.9619H27.9729H27.9838H27.9947H28.0057H28.0166H28.0276H28.0386H28.0495H28.0605H28.0715H28.0825H28.0934H28.1044H28.1154H28.1264H28.1374H28.1484H28.1594H28.1705H28.1815H28.1925H28.2035H28.2146H28.2256H28.2367H28.2477H28.2588H28.2698H28.2809H28.2919H28.303H28.3141H28.3252H28.3363H28.3473H28.3584H28.3695H28.3806H28.3917H28.4028H28.414H28.4251H28.4362H28.4473H28.4585H28.4696H28.4807H28.4919H28.503H28.5142H28.5253H28.5365H28.5477H28.5588H28.57H28.5812H28.5923H28.6035H28.6147H28.6259H28.6371H28.6483H28.6595H28.6707H28.6819H28.6931H28.7044H28.7156H28.7268H28.738H28.7493H28.7605H28.7718H28.783H28.7942H28.8055H28.8168H28.828H28.8393H28.8506H28.8618H28.8731H28.8844H28.8957H28.9069H28.9182H28.9295H28.9408H28.9521H28.9634H28.9747H28.9861H28.9974H29.0087H29.02H29.0313H29.0427H29.054H29.0653H29.0767H29.088H29.0994H29.1107H29.1221H29.1334H29.1448H29.1561H29.1675H29.1789H29.1902H29.2016H29.213H29.2244H29.2358H29.2471H29.2585H29.2699H29.2813H29.2927H29.3041H29.3155H29.327H29.3384H29.3498H29.3612H29.3726H29.3841H29.3955H29.4069H29.4184H29.4298H29.4412H29.4527H29.4641H29.4756H29.487H29.4985H29.5099H29.5214H29.5329H29.5443H29.5558H29.5673H29.5787H29.5902H29.6017H29.6132H29.6247H29.6362H29.6477H29.6591H29.6706H29.6821H29.6936H29.7051H29.7167H29.7282H29.7397H29.7512H29.7627H29.7742H29.7858H29.7973H29.8088H29.8203H29.8319H29.8434H29.8549H29.8665H29.878H29.8896H29.9011H29.9127H29.9242H29.9358H29.9473H29.9589H29.9705H29.982H29.9936H30.0052H30.0167H30.0283H30.0399H30.0515H30.063H30.0746H30.0862H30.0978H30.1094H30.121H30.1326H30.1442H30.1558H30.1673H30.179H30.1906H30.2022H30.2138H30.2254H30.237H30.2486H30.2602H30.2718H30.2835H30.2951H30.3067H30.3183H30.3299H30.3416H30.3532H30.3648H30.3765H30.3881H30.3997H30.4114H30.423H30.4347H30.4463H30.458H30.4696H30.4813H30.4929H30.5046H30.5162H30.5279H30.5395H30.5512H30.5629H30.5745H30.5862H30.5978H30.6095H30.6212H30.6329H30.6445H30.6562H30.6679H30.6796H30.6912H30.7029H30.7146H30.7263H30.738H30.7496H30.7613H30.773H30.7847H30.7964H30.8081H30.8198H30.8315H30.8432H30.8549H30.8666H30.8783H30.89H30.9017H30.9134H30.9251H30.9368H30.9485H30.9602H30.9719H30.9836H30.9953H31.007H31.0188H31.0305H31.0422H31.0539H31.0656H31.0773H31.0891H31.1008H31.1125H31.1242H31.1359H31.1477H31.1594H31.1711H31.1828H31.1946H31.2063H31.218H31.2298H31.2415H31.2532H31.2649H31.2767H31.2884H31.3001H31.3119H31.3236H31.3354H31.3471H31.3588H31.3706H31.3823H31.394H31.4058H31.4175H31.4293H31.441H31.4528H31.4645H31.4762H31.488H31.4997H31.5115H31.5232H31.535H31.5467H31.5585H31.5702H31.582H31.5937H31.6054H31.6172H31.6289H31.6407H31.6524H31.6642H31.6759H31.6877H31.6994H31.7112H31.7229H31.7347H31.7464H31.7582H31.77H31.7817H31.7935H31.8052H31.817H31.8287H31.8405H31.8522H31.864H31.8757H31.8875H31.8992H31.911H31.9227H31.9345H31.9462H31.958H31.9697H31.9815H31.9932H32.005H32.0167H32.0285H32.0403H32.052H32.0638H32.0755H32.0873H32.099H32.1108H32.1225H32.1343C32.33 20.9745 32.5568 20.9961 32.7756 21.1042C33.0052 21.2176 33.1733 21.3995 33.299 21.6274L33.2998 21.6288C34.3391 23.5278 35.3862 25.4106 36.4358 27.298C36.7141 27.7985 36.9926 28.2993 37.2712 28.8008L37.2721 28.8024C37.3288 28.9054 37.391 29.0208 37.4295 29.126C37.4586 29.2054 37.5442 29.4545 37.393 29.7001C37.25 29.9324 37.0026 29.9792 36.9263 29.9933C36.8201 30.0128 36.6922 30.0202 36.5746 30.0262C36.5735 30.0262 36.5723 30.0263 36.5712 30.0263L36.5458 29.527C35.5195 29.5931 34.4984 29.5894 33.4757 29.5857C32.925 29.5837 32.3737 29.5817 31.8209 29.5906L26.3807 20.9745ZM26.3807 20.9745L26.3672 20.9753C24.498 21.0762 22.8305 21.0803 21.1825 21.0844C20.7675 21.0854 20.3536 21.0865 19.9382 21.089M26.3807 20.9745L31.8354 30.0904C31.8301 30.0906 31.8249 30.0909 31.8199 30.0912C31.8266 31.13 31.8306 32.1677 31.8346 33.2047C31.8452 35.9878 31.8559 38.7654 31.9185 41.545C33.7513 41.5579 35.5958 41.583 37.4262 41.6081C37.438 41.6081 37.4488 41.6078 37.4585 41.6074C37.4602 41.5898 37.4615 41.569 37.4623 41.5447L37.4625 41.5394H37.4625L37.9513 30.2813L37.9513 30.2806C37.9673 29.924 38.0529 29.6047 38.2883 29.2915C40.3175 26.5477 40.4122 22.8839 38.5462 20.0309C38.0672 19.2986 37.5356 18.7448 36.921 18.3811C36.3116 18.0205 35.5935 17.8306 34.7106 17.8653L34.7092 17.8653C33.075 17.925 31.4316 17.8521 29.8209 17.7807C29.6907 17.7749 29.5607 17.7691 29.431 17.7634C28.0566 17.7066 26.6835 17.6971 25.3015 17.6907C25.2024 17.6903 25.1033 17.6898 25.0041 17.6894C23.7229 17.6837 22.4335 17.678 21.1409 17.6365C19.8982 17.604 18.9382 18.1699 18.2304 19.2762L18.2271 19.2812L18.2271 19.2812C17.817 19.9056 17.5475 20.6224 17.3687 21.3845C17.346 21.483 17.3565 21.5411 17.3999 21.6145L17.4061 21.6249L17.406 21.625C17.5376 21.8607 17.671 22.0975 17.8049 22.3355C18.1515 22.9511 18.502 23.5739 18.8383 24.2012C18.845 24.2134 18.8508 24.2233 18.8558 24.2312C18.8636 24.2302 18.873 24.2288 18.884 24.2267L18.8851 24.2265C19.1839 24.1721 19.5044 24.1285 19.8104 24.0869C19.9413 24.0691 20.0696 24.0517 20.1923 24.0339C19.8815 23.45 19.5731 22.8749 19.2447 22.3116L19.2408 22.305L19.2409 22.305C19.1847 22.2052 19.1268 22.0898 19.0935 21.9708C19.0615 21.8565 19.029 21.6566 19.1371 21.4548C19.2487 21.2464 19.4403 21.164 19.5643 21.1301C19.6881 21.0964 19.8209 21.0891 19.9382 21.089M19.9382 21.089C19.9387 21.089 19.9392 21.089 19.9398 21.089V21.589M19.9382 21.089C19.9377 21.089 19.9372 21.089 19.9367 21.089L19.9398 21.589M19.9398 21.589C20.3523 21.5865 20.7642 21.5855 21.1784 21.5844C22.8277 21.5804 24.5109 21.5762 26.3942 21.4745L20.3619 24.0085C20.4148 23.9997 20.4559 23.9921 20.4885 23.985C20.5221 23.9776 20.5389 23.9724 20.5449 23.9703C20.552 23.9678 20.5335 23.9732 20.505 23.9932C20.4732 24.0154 20.4271 24.0571 20.3926 24.1244C20.3918 24.1259 20.3911 24.1274 20.3904 24.1288C20.3887 24.1321 20.3871 24.1354 20.3856 24.1387C20.3853 24.1394 20.385 24.1401 20.3847 24.1408L20.4411 24.5022M19.9398 21.589C19.5262 21.589 19.4761 21.7035 19.6766 22.0597C20.04 22.683 20.3784 23.3191 20.7168 23.9551L20.7168 23.9552C20.9424 24.3622 20.9048 24.4258 20.4411 24.5022M20.4411 24.5022C20.2456 24.5327 20.0501 24.5592 19.8546 24.5856C19.5613 24.6253 19.268 24.665 18.9747 24.7184C18.699 24.7693 18.5361 24.693 18.3982 24.4386M20.4411 24.5022L20.3824 24.1458L18.3982 24.4386M18.3982 24.4386C18.0644 23.8157 17.7175 23.1995 17.3717 22.5851C17.2372 22.3462 17.1028 22.1075 16.9695 21.8689C16.8567 21.6781 16.8316 21.4873 16.8818 21.271C17.0698 20.4696 17.358 19.6936 17.8092 19.0067L18.3982 24.4386ZM31.846 42.0445C33.7009 42.0572 35.5683 42.0827 37.4231 42.1081C37.8242 42.1081 37.9495 41.9427 37.962 41.5611L31.846 42.0445ZM31.846 42.0445C31.5452 42.0445 31.4324 41.9173 31.4199 41.612L31.846 42.0445Z" stroke="#021689"/>
</g>
<g filter="url(#filter2_d_0_594)">
<path d="M23.4272 42.0185C20.9111 42.0185 18.3829 42.0058 15.8668 42.0313C15.4833 42.0313 15.3396 41.9034 15.3036 41.4813C15.052 38.8588 14.7764 36.2235 14.5008 33.601C14.393 32.5904 14.2972 31.567 14.1773 30.5563C14.0935 29.84 14.1174 29.7888 14.7764 29.7888C18.8143 29.7504 22.8641 29.712 26.9019 29.6736C27.4171 29.6736 27.9324 29.6353 28.4476 29.6225C28.7471 29.6097 28.8789 29.7376 28.8909 30.083C28.9987 32.3473 29.1305 34.6116 29.2503 36.8759C29.3342 38.411 29.4301 39.9461 29.5139 41.4813C29.5499 42.0953 29.5139 42.1081 28.9508 42.1081C27.1176 42.1081 25.2724 42.1081 23.4392 42.1081C23.4272 42.0825 23.4272 42.0441 23.4272 42.0185ZM20.935 37.7714C20.8512 38.2319 21.0429 38.3854 21.4622 38.3599C21.9055 38.3471 22.3369 38.3854 22.7802 38.4238C23.0438 38.4494 23.1397 38.3599 23.0917 38.0784C23.0198 37.6307 22.9719 37.1829 22.9 36.7352C22.8401 36.3642 22.8761 36.0828 23.1397 35.7757C23.6908 35.1233 23.6189 34.0231 23.0438 33.4219C22.4927 32.8462 21.4982 32.8334 20.9111 33.3835C20.3 33.9464 20.1442 35.0338 20.6834 35.6606C21.0429 36.07 21.0429 36.4793 21.0069 36.9527C21.0069 37.2213 20.971 37.49 20.935 37.7714Z" fill="white"/>
<path d="M23.9272 41.6081H23.9336H23.9443H23.9551H23.9658H23.9766H23.9874H23.9981H24.0089H24.0196H24.0304H24.0411H24.0519H24.0626H24.0734H24.0841H24.0949H24.1057H24.1164H24.1272H24.1379H24.1487H24.1594H24.1702H24.181H24.1917H24.2025H24.2132H24.224H24.2347H24.2455H24.2563H24.267H24.2778H24.2885H24.2993H24.3101H24.3208H24.3316H24.3423H24.3531H24.3639H24.3746H24.3854H24.3962H24.4069H24.4177H24.4284H24.4392H24.45H24.4607H24.4715H24.4823H24.493H24.5038H24.5145H24.5253H24.5361H24.5468H24.5576H24.5684H24.5791H24.5899H24.6007H24.6114H24.6222H24.6329H24.6437H24.6545H24.6652H24.676H24.6868H24.6975H24.7083H24.7191H24.7298H24.7406H24.7514H24.7621H24.7729H24.7837H24.7944H24.8052H24.816H24.8267H24.8375H24.8483H24.8591H24.8698H24.8806H24.8914H24.9021H24.9129H24.9237H24.9344H24.9452H24.956H24.9667H24.9775H24.9883H24.9991H25.0098H25.0206H25.0314H25.0421H25.0529H25.0637H25.0744H25.0852H25.096H25.1068H25.1175H25.1283H25.1391H25.1498H25.1606H25.1714H25.1822H25.1929H25.2037H25.2145H25.2252H25.236H25.2468H25.2576H25.2683H25.2791H25.2899H25.3007H25.3114H25.3222H25.333H25.3437H25.3545H25.3653H25.3761H25.3868H25.3976H25.4084H25.4192H25.4299H25.4407H25.4515H25.4623H25.473H25.4838H25.4946H25.5054H25.5161H25.5269H25.5377H25.5484H25.5592H25.57H25.5808H25.5915H25.6023H25.6131H25.6239H25.6346H25.6454H25.6562H25.667H25.6777H25.6885H25.6993H25.7101H25.7208H25.7316H25.7424H25.7532H25.764H25.7747H25.7855H25.7963H25.8071H25.8178H25.8286H25.8394H25.8502H25.8609H25.8717H25.8825H25.8933H25.904H25.9148H25.9256H25.9364H25.9471H25.9579H25.9687H25.9795H25.9902H26.001H26.0118H26.0226H26.0334H26.0441H26.0549H26.0657H26.0765H26.0872H26.098H26.1088H26.1196H26.1303H26.1411H26.1519H26.1627H26.1734H26.1842H26.195H26.2058H26.2166H26.2273H26.2381H26.2489H26.2597H26.2704H26.2812H26.292H26.3028H26.3135H26.3243H26.3351H26.3459H26.3566H26.3674H26.3782H26.389H26.3998H26.4105H26.4213H26.4321H26.4429H26.4536H26.4644H26.4752H26.486H26.4967H26.5075H26.5183H26.5291H26.5398H26.5506H26.5614H26.5722H26.5829H26.5937H26.6045H26.6153H26.6261H26.6368H26.6476H26.6584H26.6692H26.6799H26.6907H26.7015H26.7123H26.723H26.7338H26.7446H26.7554H26.7661H26.7769H26.7877H26.7985H26.8092H26.82H26.8308H26.8416H26.8523H26.8631H26.8739H26.8847H26.8954H26.9062H26.917H26.9277H26.9385H26.9493H26.9601H26.9708H26.9816H26.9924H27.0032H27.0139H27.0247H27.0355H27.0463H27.057H27.0678H27.0786H27.0894H27.1001H27.1109H27.1217H27.1324H27.1432H27.154H27.1648H27.1755H27.1863H27.1971H27.2078H27.2186H27.2294H27.2402H27.2509H27.2617H27.2725H27.2832H27.294H27.3048H27.3156H27.3263H27.3371H27.3479H27.3586H27.3694H27.3802H27.391H27.4017H27.4125H27.4233H27.434H27.4448H27.4556H27.4663H27.4771H27.4879H27.4986H27.5094H27.5202H27.531H27.5417H27.5525H27.5633H27.574H27.5848H27.5956H27.6063H27.6171H27.6279H27.6386H27.6494H27.6602H27.6709H27.6817H27.6925H27.7032H27.714H27.7248H27.7355H27.7463H27.7571H27.7678H27.7786H27.7893H27.8001H27.8109H27.8216H27.8324H27.8432H27.8539H27.8647H27.8755H27.8862H27.897H27.9078H27.9185H27.9293H27.94H27.9508H27.9616H27.9723H27.9831H27.9939H28.0046H28.0154H28.0261H28.0369H28.0477H28.0584H28.0692H28.0799H28.0907H28.1015H28.1122H28.123H28.1337H28.1445H28.1553H28.166H28.1768H28.1875H28.1983H28.209H28.2198H28.2306H28.2413H28.2521H28.2628H28.2736H28.2843H28.2951H28.3059H28.3166H28.3274H28.3381H28.3489H28.3596H28.3704H28.3811H28.3919H28.4027H28.4134H28.4242H28.4349H28.4457H28.4564H28.4672H28.4779H28.4887H28.4994H28.5102H28.5209H28.5317H28.5424H28.5532H28.5639H28.5747H28.5854H28.5962H28.6069H28.6177H28.6284H28.6392H28.6499H28.6607H28.6714H28.6822H28.6929H28.7037H28.7144H28.7252H28.7359H28.7467H28.7574H28.7682H28.7789H28.7896H28.8004H28.8111H28.8219H28.8326H28.8434H28.8541H28.8649H28.8756H28.8863H28.8971H28.9078H28.9186H28.9293H28.9401H28.9508C28.9757 41.6081 28.9987 41.6081 29.02 41.608C29.0186 41.5785 29.0169 41.5462 29.0148 41.5105L29.0147 41.5085C28.9728 40.7421 28.9279 39.9755 28.883 39.2078L28.8829 39.2067C28.838 38.4397 28.7931 37.6715 28.7511 36.9032L28.751 36.9023C28.7112 36.1494 28.67 35.3955 28.6287 34.6412C28.5464 33.1364 28.4641 31.6296 28.3923 30.1242C28.2281 30.129 28.0534 30.1367 27.8742 30.1446C27.5533 30.1588 27.2183 30.1736 26.9043 30.1736L20.8439 30.2312L14.7812 30.2888L14.7764 30.2888V30.2888C14.7294 30.2888 14.6881 30.2891 14.6515 30.2898C14.6568 30.3483 14.6644 30.4164 14.6739 30.4978C14.6739 30.498 14.6739 30.4981 14.6739 30.4982L14.1773 30.5563C14.2559 31.2187 14.3241 31.8865 14.3921 32.5526C14.4279 32.9029 14.4637 33.2527 14.5008 33.601L23.9272 41.6081ZM23.9272 41.6081V41.5185H23.4272C22.8 41.5185 22.1715 41.5178 21.5423 41.517C19.6516 41.5146 17.7542 41.5121 15.8644 41.5313L23.9272 41.6081ZM14.4664 30.303C14.4663 30.303 14.4669 30.3029 14.4681 30.3026L14.4664 30.303ZM23.3937 36.6559L23.3936 36.6555C23.3689 36.5025 23.3712 36.4092 23.3866 36.3399C23.4006 36.2772 23.432 36.2028 23.519 36.1014L23.5216 36.0984C23.8933 35.6584 24.0394 35.089 24.0135 34.5554C23.9876 34.0225 23.7883 33.4768 23.4051 33.0763L23.405 33.0761C22.6578 32.2957 21.3506 32.2882 20.5707 33.0172C20.1674 33.3895 19.9289 33.9171 19.8691 34.4415C19.8092 34.9668 19.924 35.5445 20.3043 35.9867L20.3043 35.9867L20.3077 35.9905C20.5247 36.2376 20.5426 36.4634 20.5084 36.9148L20.5069 36.9337V36.9527C20.5069 37.177 20.4777 37.4054 20.442 37.6852L20.4406 37.6958C20.3926 37.9712 20.3923 38.3291 20.6508 38.5958C20.8984 38.8514 21.2435 38.8731 21.484 38.8594C21.887 38.8484 22.2832 38.8827 22.7245 38.9209L22.7346 38.9217C22.8845 38.9361 23.1942 38.9467 23.4177 38.708C23.6419 38.4687 23.6122 38.1579 23.5851 37.9971C23.5505 37.7814 23.5215 37.5647 23.4915 37.3405L23.491 37.3374C23.4614 37.1155 23.4307 36.8862 23.3937 36.6559Z" stroke="#021689"/>
</g>
<g filter="url(#filter3_d_0_594)">
<path d="M16.3877 28.7086C16.2474 28.7086 16.0688 28.7861 15.9795 28.644C15.8902 28.4891 16.0433 28.3728 16.1198 28.2566C16.4259 27.7529 16.7575 27.275 17.0381 26.7454C17.2549 26.3321 17.5738 26.1901 18.0202 26.1771C18.9895 26.1513 19.9588 26.0867 20.9281 26.0609C21.2852 26.0609 21.5786 25.9576 21.8592 25.738C22.4458 25.2859 23.0708 24.8597 23.6575 24.4077C23.8615 24.2527 24.0529 24.2139 24.2697 24.3689C24.3972 24.4464 24.5375 24.4852 24.6523 24.5756C25.6854 25.4022 26.8077 25.4668 28.0194 25.0664C28.5678 24.8856 29.1545 24.821 29.7157 24.6789C30.0218 24.6014 30.2513 24.6531 30.4171 24.9501C30.4554 25.0147 30.5192 25.0793 30.5574 25.1439C30.8763 25.7767 31.3609 26.0738 32.0752 25.9834C32.4578 25.9447 32.7511 26.1126 32.9552 26.4613C33.2103 26.9004 33.5164 27.3008 33.797 27.727C33.899 27.882 34.1158 28.037 34.0265 28.2307C33.9373 28.4374 33.6822 28.347 33.4909 28.347C32.2792 28.3857 31.0676 28.3857 29.856 28.4245C27.5347 28.502 25.2007 28.5149 22.8795 28.5666C20.7113 28.6053 18.5558 28.657 16.3877 28.7086Z" fill="white"/>
<path d="M16.744 28.2C18.7876 28.1513 20.8227 28.1032 22.8694 28.0667C23.7476 28.0471 24.6235 28.0331 25.4979 28.0192C26.9473 27.9961 28.3928 27.973 29.8393 27.9248L29.84 27.9247C30.4498 27.9052 31.0589 27.8955 31.6634 27.8858L31.6654 27.8858C32.2062 27.8771 32.7433 27.8686 33.2796 27.8532C33.2213 27.7676 33.1599 27.6791 33.097 27.5884C32.9034 27.3094 32.6958 27.0101 32.5233 26.7132M16.744 28.2L32.0752 25.9834M16.744 28.2C16.7753 28.1504 16.8071 28.1003 16.8392 28.0498C17.055 27.71 17.2839 27.3494 17.4799 26.9795L17.4799 26.9795L17.4809 26.9777C17.551 26.8441 17.6199 26.7843 17.6827 26.75C17.7524 26.7119 17.8578 26.6821 18.0341 26.6769M16.744 28.2L18.0341 26.6769M32.5233 26.7132C32.5231 26.713 32.523 26.7127 32.5228 26.7124L32.9552 26.4613L32.5236 26.7138C32.5235 26.7136 32.5234 26.7134 32.5233 26.7132ZM32.5233 26.7132C32.4563 26.5989 32.3919 26.5431 32.341 26.5151C32.2941 26.4892 32.2301 26.4711 32.1305 26.4804M32.1305 26.4804C32.133 26.4801 32.1355 26.4798 32.138 26.4794L32.0752 25.9834M32.1305 26.4804C32.1289 26.4805 32.1272 26.4807 32.1255 26.4809L32.0752 25.9834M32.1305 26.4804C31.6916 26.5347 31.2813 26.4741 30.9212 26.2697C30.5707 26.0707 30.3132 25.7614 30.1238 25.3942M32.0752 25.9834C31.3609 26.0738 30.8763 25.7767 30.5574 25.1439M30.1238 25.3942C30.1266 25.3979 30.1274 25.3991 30.1275 25.3991C30.1275 25.3991 30.1274 25.399 30.1273 25.3987L30.5574 25.1439M30.1238 25.3942C30.1197 25.3886 30.1112 25.3776 30.0949 25.357C30.0936 25.3553 30.0921 25.3534 30.0906 25.3514C30.0681 25.3231 30.0238 25.2672 29.987 25.205L29.9804 25.1939L29.9805 25.1938C29.9665 25.1686 29.9555 25.1542 29.9491 25.1467M30.1238 25.3942C30.1195 25.3858 30.1152 25.3773 30.1109 25.3688L30.5574 25.1439M30.5574 25.1439C30.5383 25.1116 30.5128 25.0793 30.4873 25.047C30.4618 25.0147 30.4363 24.9824 30.4171 24.9501L29.9491 25.1467M29.9491 25.1467C29.9556 25.1469 29.9586 25.1475 29.9586 25.1475C29.9586 25.1475 29.9574 25.1472 29.9552 25.1465C29.9488 25.1442 29.9444 25.1413 29.9433 25.1405C29.9429 25.1402 29.9428 25.1402 29.9431 25.1404C29.9439 25.1412 29.946 25.1432 29.9491 25.1467ZM29.9491 25.1467C29.9341 25.1463 29.9001 25.148 29.8384 25.1636C29.5989 25.2242 29.3528 25.272 29.1231 25.3167C29.0676 25.3275 29.0131 25.338 28.9598 25.3486C28.6774 25.4045 28.4191 25.4611 28.1759 25.5412M29.9491 25.1467L21.8592 25.738M28.1759 25.5412C28.176 25.5412 28.1761 25.5412 28.1762 25.5411L28.0194 25.0664L28.1759 25.5412ZM28.1759 25.5412C26.8452 25.9809 25.5358 25.9228 24.3399 24.966L24.6523 24.5756L24.3429 24.9684C24.3334 24.9609 24.3141 24.9485 24.2533 24.92C24.2463 24.9167 24.2381 24.9129 24.2288 24.9087C24.1757 24.8843 24.0896 24.8446 24.01 24.7962L23.9941 24.7865L23.9907 24.7841M23.9907 24.7841C24.0034 24.7758 24.0123 24.7712 24.0177 24.7687C24.0203 24.7675 24.0216 24.767 24.0216 24.767C24.0216 24.767 24.0164 24.7688 24.0068 24.7698C23.9998 24.7704 23.992 24.7705 23.9841 24.7697C23.9838 24.7696 23.9835 24.7696 23.9833 24.7696C23.9757 24.7688 23.9696 24.7673 23.9654 24.7661C23.9625 24.7652 23.961 24.7645 23.961 24.7645C23.961 24.7645 23.9669 24.7671 23.9789 24.7757L23.9907 24.7841ZM23.9907 24.7841C23.9824 24.7894 23.9725 24.7963 23.961 24.805M23.961 24.805C23.9616 24.8046 23.9621 24.8042 23.9626 24.8037L23.6575 24.4077L23.9599 24.8059C23.9603 24.8056 23.9607 24.8053 23.961 24.805ZM23.961 24.805C23.6624 25.0351 23.3551 25.2578 23.0547 25.4756L23.0518 25.4777C22.7483 25.6976 22.4519 25.9126 22.1657 26.133M22.1657 26.133C22.1662 26.1326 22.1668 26.1322 22.1673 26.1318L21.8592 25.738M22.1657 26.133C22.1653 26.1334 22.1648 26.1337 22.1643 26.1341L21.8592 25.738M22.1657 26.133C21.8011 26.4178 21.4024 26.5595 20.9352 26.5609M21.8592 25.738C21.5786 25.9576 21.2852 26.0609 20.9281 26.0609M20.9352 26.5609C20.9373 26.5608 20.9393 26.5608 20.9414 26.5607L20.9281 26.0609M20.9352 26.5609C20.4584 26.5737 19.9808 26.5959 19.4974 26.6185L19.495 26.6186C19.0122 26.6411 18.5235 26.6639 18.0341 26.6769M20.9352 26.5609C20.9328 26.5609 20.9305 26.5609 20.9281 26.5609V26.0609M20.9281 26.0609L18.0341 26.6769M33.5725 28.2495C33.5725 28.2495 33.5721 28.2489 33.5715 28.2478C33.5722 28.2489 33.5726 28.2495 33.5725 28.2495Z" stroke="#021689"/>
</g>
<g filter="url(#filter4_d_0_594)">
<path d="M18.6626 15.058C18.7015 15.4267 18.455 15.4813 18.1954 15.5223C17.6634 15.5906 17.1702 15.7544 16.6771 15.9593C15.9633 16.2597 15.4832 16.7923 15.2756 17.5843C15.1198 18.1442 14.9901 18.7178 14.9381 19.305C14.9122 19.5508 14.8862 19.7966 14.5618 19.8103C14.2244 19.8239 14.1984 19.5918 14.1855 19.3323C14.1855 19.264 14.1725 19.1957 14.1595 19.1275C13.7962 16.7377 13.1732 16.0412 10.9282 15.495C10.7206 15.4403 10.4999 15.454 10.5259 15.1126C10.5519 14.8258 10.6427 14.6756 10.9282 14.6346C11.3045 14.58 11.6679 14.4844 12.0313 14.3888C13.4068 13.9928 13.9908 13.2281 14.1206 11.7396C14.1465 11.4255 13.9778 10.9202 14.5099 10.8929C15.0679 10.8656 14.8992 11.3982 14.9511 11.6986C15.2756 13.5558 15.9244 14.2523 17.7023 14.5664C17.9099 14.6073 18.1176 14.6483 18.3382 14.6756C18.5718 14.662 18.6626 14.8122 18.6626 15.058Z" fill="white"/>
<path d="M17.6124 15.0583C17.6617 15.068 17.7121 15.0779 17.7636 15.0878C17.3121 15.1805 16.8908 15.3291 16.4853 15.4975L16.4853 15.4975L16.4831 15.4984C15.6292 15.8579 15.041 16.5114 14.7929 17.4538C14.702 17.7807 14.6181 18.118 14.5525 18.4643C14.3718 17.5449 14.1085 16.8328 13.6229 16.2874C13.0811 15.6788 12.3208 15.3427 11.3106 15.076C11.6027 15.0186 11.8831 14.9448 12.1467 14.8755L12.1585 14.8724L12.1585 14.8725L12.1696 14.8693C12.9211 14.653 13.5173 14.3179 13.9368 13.7822C14.265 13.3629 14.4564 12.8572 14.5568 12.2713C14.7278 13.0054 14.9848 13.6002 15.4199 14.0563C15.951 14.6131 16.6797 14.8929 17.6103 15.0579L17.6124 15.0583ZM11.0239 15.1682C11.0239 15.1682 11.0238 15.1679 11.0238 15.1671L11.0239 15.1682Z" stroke="#021689"/>
</g>
<g filter="url(#filter5_d_0_594)">
<path d="M15.0366 24.0178C15.1015 24.3853 14.8678 24.4262 14.66 24.4534C14.1017 24.5351 13.5693 24.6984 13.05 24.9162C12.3488 25.2293 11.8944 25.7465 11.6866 26.5087C11.5308 27.094 11.4139 27.6793 11.336 28.2783C11.2971 28.5369 11.2322 28.7547 10.9205 28.7274C10.6219 28.7138 10.5959 28.4824 10.5699 28.2646C10.544 28.0469 10.544 27.8155 10.505 27.5977C10.1674 25.7329 9.37539 24.889 7.58354 24.4806C7.4537 24.4534 7.32385 24.4126 7.19401 24.399C6.99924 24.3717 6.88239 24.2764 6.90835 24.0587C6.92134 23.8409 6.94731 23.6367 7.20699 23.5959C7.58354 23.5278 7.9471 23.4461 8.32365 23.3509C9.81685 22.9561 10.4401 22.1667 10.544 20.5469C10.557 20.4108 10.557 20.2746 10.5699 20.1385C10.5829 19.8935 10.7517 19.8391 10.9465 19.8118C11.1672 19.7982 11.2711 19.9207 11.2971 20.1385C11.375 20.7374 11.4789 21.3227 11.6866 21.8944C11.9333 22.5614 12.3618 22.9697 12.998 23.2011C13.5434 23.4053 14.1147 23.5006 14.686 23.5823C14.9457 23.6231 15.0885 23.7456 15.0366 24.0178Z" fill="white"/>
<path d="M12.8249 23.6702C13.2947 23.8459 13.7755 23.9458 14.237 24.0202C13.7576 24.1184 13.2994 24.2694 12.8566 24.4551L12.8566 24.455L12.8461 24.4596C12.0099 24.833 11.4519 25.4684 11.2042 26.3773L11.2042 26.3773L11.2034 26.3801C11.1146 26.7137 11.038 27.0475 10.9735 27.384C10.7924 26.4598 10.4862 25.7183 9.95439 25.151C9.40483 24.5648 8.66551 24.2192 7.73331 24.002C7.97115 23.9517 8.2068 23.8962 8.44631 23.8356L8.44631 23.8356L8.45144 23.8343C9.2587 23.6209 9.90085 23.2822 10.3469 22.7185C10.6771 22.3012 10.871 21.7968 10.9712 21.21C11.0341 21.4947 11.1132 21.7805 11.2167 22.0652L11.2167 22.0652L11.2177 22.0679C11.5162 22.8749 12.0549 23.3895 12.8249 23.6702ZM14.6908 23.9412C14.6908 23.9412 14.6902 23.9414 14.6892 23.9418L14.6908 23.9412ZM7.25073 23.9016C7.24814 23.9011 7.24698 23.9007 7.24705 23.9007C7.24711 23.9006 7.2484 23.9009 7.25073 23.9016ZM10.7963 20.1738C10.7964 20.1738 10.7967 20.1746 10.7971 20.1765C10.7965 20.1748 10.7963 20.1738 10.7963 20.1738Z" stroke="#021689"/>
</g>
</g>
<defs>
<filter id="filter0_d_0_594" x="0.5" y="0.5" width="54" height="54" filterUnits="userSpaceOnUse" color-interpolation-filters="sRGB">
<feFlood flood-opacity="0" result="BackgroundImageFix"/>
<feColorMatrix in="SourceAlpha" type="matrix" values="0 0 0 0 0 0 0 0 0 0 0 0 0 0 0 0 0 0 127 0" result="hardAlpha"/>
<feOffset dx="2" dy="2"/>
<feComposite in2="hardAlpha" operator="out"/>
<feColorMatrix type="matrix" values="0 0 0 0 0.0117647 0 0 0 0 0.580392 0 0 0 0 0.764706 0 0 0 1 0"/>
<feBlend mode="normal" in2="BackgroundImageFix" result="effect1_dropShadow_0_594"/>
<feBlend mode="normal" in="SourceGraphic" in2="effect1_dropShadow_0_594" result="shape"/>
</filter>
<filter id="filter1_d_0_594" x="16.8571" y="17.1351" width="24.5238" height="25.973" filterUnits="userSpaceOnUse" color-interpolation-filters="sRGB">
<feFlood flood-opacity="0" result="BackgroundImageFix"/>
<feColorMatrix in="SourceAlpha" type="matrix" values="0 0 0 0 0 0 0 0 0 0 0 0 0 0 0 0 0 0 127 0" result="hardAlpha"/>
<feOffset dx="1" dy="1"/>
<feComposite in2="hardAlpha" operator="out"/>
<feColorMatrix type="matrix" values="0 0 0 0 0.0117647 0 0 0 0 0.580392 0 0 0 0 0.764706 0 0 0 1 0"/>
<feBlend mode="normal" in2="BackgroundImageFix" result="effect1_dropShadow_0_594"/>
<feBlend mode="normal" in="SourceGraphic" in2="effect1_dropShadow_0_594" result="shape"/>
</filter>
<filter id="filter2_d_0_594" x="14.1429" y="29.6216" width="16.381" height="13.4865" filterUnits="userSpaceOnUse" color-interpolation-filters="sRGB">
<feFlood flood-opacity="0" result="BackgroundImageFix"/>
<feColorMatrix in="SourceAlpha" type="matrix" values="0 0 0 0 0 0 0 0 0 0 0 0 0 0 0 0 0 0 127 0" result="hardAlpha"/>
<feOffset dx="1" dy="1"/>
<feComposite in2="hardAlpha" operator="out"/>
<feColorMatrix type="matrix" values="0 0 0 0 0.0117647 0 0 0 0 0.580392 0 0 0 0 0.764706 0 0 0 1 0"/>
<feBlend mode="normal" in2="BackgroundImageFix" result="effect1_dropShadow_0_594"/>
<feBlend mode="normal" in="SourceGraphic" in2="effect1_dropShadow_0_594" result="shape"/>
</filter>
<filter id="filter3_d_0_594" x="15.9524" y="24.2703" width="19.0952" height="5.45947" filterUnits="userSpaceOnUse" color-interpolation-filters="sRGB">
<feFlood flood-opacity="0" result="BackgroundImageFix"/>
<feColorMatrix in="SourceAlpha" type="matrix" values="0 0 0 0 0 0 0 0 0 0 0 0 0 0 0 0 0 0 127 0" result="hardAlpha"/>
<feOffset dx="1" dy="1"/>
<feComposite in2="hardAlpha" operator="out"/>
<feColorMatrix type="matrix" values="0 0 0 0 0.0117647 0 0 0 0 0.580392 0 0 0 0 0.764706 0 0 0 1 0"/>
<feBlend mode="normal" in2="BackgroundImageFix" result="effect1_dropShadow_0_594"/>
<feBlend mode="normal" in="SourceGraphic" in2="effect1_dropShadow_0_594" result="shape"/>
</filter>
<filter id="filter4_d_0_594" x="10.5238" y="10.8919" width="9.14286" height="9.91891" filterUnits="userSpaceOnUse" color-interpolation-filters="sRGB">
<feFlood flood-opacity="0" result="BackgroundImageFix"/>
<feColorMatrix in="SourceAlpha" type="matrix" values="0 0 0 0 0 0 0 0 0 0 0 0 0 0 0 0 0 0 127 0" result="hardAlpha"/>
<feOffset dx="1" dy="1"/>
<feComposite in2="hardAlpha" operator="out"/>
<feColorMatrix type="matrix" values="0 0 0 0 0.0117647 0 0 0 0 0.580392 0 0 0 0 0.764706 0 0 0 1 0"/>
<feBlend mode="normal" in2="BackgroundImageFix" result="effect1_dropShadow_0_594"/>
<feBlend mode="normal" in="SourceGraphic" in2="effect1_dropShadow_0_594" result="shape"/>
</filter>
<filter id="filter5_d_0_594" x="6.90476" y="19.8108" width="9.14286" height="9.91891" filterUnits="userSpaceOnUse" color-interpolation-filters="sRGB">
<feFlood flood-opacity="0" result="BackgroundImageFix"/>
<feColorMatrix in="SourceAlpha" type="matrix" values="0 0 0 0 0 0 0 0 0 0 0 0 0 0 0 0 0 0 127 0" result="hardAlpha"/>
<feOffset dx="1" dy="1"/>
<feComposite in2="hardAlpha" operator="out"/>
<feColorMatrix type="matrix" values="0 0 0 0 0.0117647 0 0 0 0 0.580392 0 0 0 0 0.764706 0 0 0 1 0"/>
<feBlend mode="normal" in2="BackgroundImageFix" result="effect1_dropShadow_0_594"/>
<feBlend mode="normal" in="SourceGraphic" in2="effect1_dropShadow_0_594" result="shape"/>
</filter>
<clipPath id="clip0_0_594">
<rect width="38" height="33" fill="white" transform="translate(6 10)"/>
</clipPath>
</defs>
</svg>
