<svg width="39" height="63" viewBox="0 0 39 63" fill="none" xmlns="http://www.w3.org/2000/svg">
<path d="M11.5389 1.25813C11.3935 1.70481 11.2286 2.14743 11.111 2.59991C11.0195 2.9554 10.9189 3.43776 11.4329 3.48053C11.7428 3.51294 12.1281 3.12797 12.0106 2.81377C11.5895 1.68422 12.6111 1.67479 13.113 1.41361C13.7393 1.08474 14.1112 1.69777 14.4355 2.14873C15.1392 3.13525 16.2324 3.46555 17.2938 3.66926C17.8799 3.78429 18.4401 4.00517 18.9475 4.32123C19.1722 4.34178 19.3866 4.42514 19.5665 4.56191C19.7464 4.69868 19.8846 4.88342 19.9656 5.0953C20.5867 5.9066 21.2833 6.63415 21.6412 7.66273C21.9991 8.69131 22.9058 9.20515 23.9221 9.34677C25.5224 9.57207 26.6541 10.5396 27.0062 12.1258C27.3403 13.6586 27.6583 15.1296 25.6018 15.7134C25.5297 15.7324 25.4632 15.7684 25.4077 15.8186C25.3522 15.8687 25.3094 15.9314 25.2829 16.0015C25.2563 16.0715 25.2468 16.147 25.2551 16.2214C25.2634 16.2958 25.2892 16.3672 25.3305 16.4294C25.8996 16.4866 26.228 15.9844 26.677 15.7678C27.2929 15.4748 27.9522 15.3225 28.2879 15.9836C28.6236 16.6447 27.7942 16.7352 27.4382 17.0355C27.3035 17.1213 27.1585 17.1895 27.0067 17.2382C28.2038 18.073 28.9647 16.2066 29.9226 16.8657C30.6238 17.3484 31.949 17.6803 31.0798 19.091C33.1832 19.1461 35.1184 19.2276 36.2291 21.2998C36.5327 21.789 36.9714 22.1783 37.4916 22.4204C39.2206 23.366 39.4111 25.3927 37.75 26.5184C36.5528 27.3281 35.9117 28.6898 34.6263 29.3788C34.2804 29.5613 34.2012 30.0247 34.1982 30.4016C34.1856 32.9009 32.9105 34.9206 31.6613 36.9134C31.1741 37.6898 30.5541 38.4062 29.2243 37.9008C28.4839 37.6206 27.3664 38.2012 26.464 38.5164C25.5616 38.8316 24.6426 39.199 25.0405 40.5373C25.124 40.8474 24.9083 41.2969 24.7019 41.5904C23.4838 43.3655 22.1264 45.0398 20.6428 46.5969C20.0365 47.2197 19.2547 47.2908 18.4625 46.7014C18.0404 46.3851 17.6022 45.9368 16.9371 46.1171C16.9371 46.7024 17.5666 46.8599 17.7509 47.3695C18.4009 49.1847 17.5444 50.3669 15.6267 50.1456C14.8671 50.0546 13.959 49.5054 14.2256 51.0972C14.2984 51.5426 13.7999 52.3312 12.978 51.6331C12.7633 51.4508 12.5264 51.0123 12.165 51.3525C11.8796 51.6207 12.0817 52.0725 12.2399 52.2752C13.1931 53.4864 12.3681 54.3504 11.6472 55.119C11.0774 55.7201 11.0889 56.2638 11.5454 56.7218C12.4816 57.6661 12.2545 58.4352 11.4297 59.27C11.2327 59.4431 11.0799 59.6615 10.9844 59.9064C10.8888 60.1514 10.8532 60.4158 10.8807 60.6772C10.9623 61.2473 11.0644 61.7748 10.2652 61.9857C9.93837 62.0696 9.59483 62.0575 9.27518 61.951C8.95554 61.8444 8.67317 61.6478 8.46152 61.3844C7.52625 60.1711 6.64251 58.8778 6.66845 57.2064C6.68513 56.332 6.07693 55.7516 5.38022 55.1499C6.52576 54.7274 6.90394 54.2092 6.56188 52.9235C6.27253 51.8448 5.59655 50.8231 5.54608 49.8528C5.47591 48.4891 5.03065 47.0853 5.64979 45.6342C6.61928 43.3664 6.20405 40.8569 6.53919 38.4687C6.75771 36.9047 6.90851 35.3033 7.39358 33.8125C8.59625 30.022 7.8183 28.4581 5.05438 26.1642C4.06349 25.3431 3.82938 24.2643 3.28615 23.2468C2.03249 20.899 2.36476 18.0507 0.724675 15.8565C0.320298 15.3157 0.116173 14.4275 0.932789 13.7432C1.42209 13.3331 2.25522 12.8483 1.28939 12.0325C1.0298 11.8145 1.25597 11.4403 1.47471 11.1435C2.03734 10.32 2.73121 9.59544 3.52818 8.9993C5.25338 7.81676 6.04183 6.2224 5.57919 4.12144C5.49107 3.70802 5.47859 3.37767 5.84708 3.11503C5.81102 2.80025 5.93302 2.70278 6.22641 2.82831C6.31757 2.93555 6.43291 3.01924 6.56284 3.07244C6.69276 3.12564 6.83352 3.14681 6.9734 3.13418C7.11327 3.12154 7.24823 3.07548 7.36704 2.99982C7.48586 2.92416 7.58509 2.82109 7.65649 2.69918C7.96312 2.20901 8.39287 1.80885 8.90213 1.53931C9.41139 1.26977 9.98203 1.14045 10.5561 1.16448C10.8027 1.16614 11.0477 0.924575 11.2922 0.797031C11.3618 0.853382 11.4195 0.9232 11.4618 1.00238C11.5042 1.08157 11.5304 1.16852 11.5389 1.25813Z" fill="#0F8140"/>
</svg>
